<svg width="696" height="163" viewBox="0 0 696 163" fill="none" xmlns="http://www.w3.org/2000/svg">
<rect width="696" height="163" fill="#E5E5E5"/>
<g clip-path="url(#clip0_0_1)">
<rect width="1920" height="6313" transform="translate(-147 -646)" fill="#F4F4F4"/>
<g filter="url(#filter0_d_0_1)">
<rect x="21" y="17" width="655" height="120" rx="60" fill="white"/>
</g>
<mask id="mask0_0_1" style="mask-type:alpha" maskUnits="userSpaceOnUse" x="25" y="21" width="646" height="113">
<rect x="25" y="21" width="646" height="113" rx="56.5" fill="white"/>
</mask>
<g mask="url(#mask0_0_1)">
<g filter="url(#filter1_f_0_1)">
<circle cx="127" cy="27" r="44" fill="#F7D06D"/>
</g>
<g filter="url(#filter2_f_0_1)">
<circle cx="69" cy="113" r="44" fill="#FF00D6" fill-opacity="0.8"/>
</g>
<g filter="url(#filter3_f_0_1)">
<circle cx="250" cy="109" r="57" fill="#6D93F7"/>
</g>
<g filter="url(#filter4_f_0_1)">
<circle cx="362.5" cy="27.5" r="50.5" fill="#F25F5F" fill-opacity="0.7"/>
</g>
<g filter="url(#filter5_f_0_1)">
<circle cx="475" cy="108" r="48" fill="#35FF14" fill-opacity="0.8"/>
</g>
<g filter="url(#filter6_f_0_1)">
<circle cx="627" cy="54" r="44" fill="#02B5ED"/>
</g>
</g>
<path d="M174.833 57.125L178.5 60.7917L182.167 57.125" stroke="#535353" stroke-linecap="round" stroke-linejoin="round"/>
<rect x="103" y="75" width="145" height="31" rx="5" fill="white"/>
<rect x="359" y="75" width="145" height="31" rx="5" fill="white"/>
<path d="M110.335 63V52.35H111.385V62.07H117.535V63H110.335ZM122.039 63.15C121.289 63.15 120.619 62.965 120.029 62.595C119.449 62.225 118.994 61.735 118.664 61.125C118.334 60.505 118.169 59.835 118.169 59.115C118.169 58.385 118.334 57.715 118.664 57.105C119.004 56.485 119.464 55.99 120.044 55.62C120.634 55.24 121.299 55.05 122.039 55.05C122.789 55.05 123.454 55.24 124.034 55.62C124.624 55.99 125.084 56.485 125.414 57.105C125.754 57.715 125.924 58.385 125.924 59.115C125.924 59.835 125.759 60.505 125.429 61.125C125.099 61.735 124.639 62.225 124.049 62.595C123.469 62.965 122.799 63.15 122.039 63.15ZM119.204 59.13C119.204 59.71 119.329 60.24 119.579 60.72C119.839 61.19 120.184 61.565 120.614 61.845C121.044 62.115 121.519 62.25 122.039 62.25C122.559 62.25 123.034 62.11 123.464 61.83C123.894 61.55 124.239 61.17 124.499 60.69C124.759 60.21 124.889 59.68 124.889 59.1C124.889 58.52 124.759 57.99 124.499 57.51C124.239 57.03 123.894 56.65 123.464 56.37C123.034 56.09 122.559 55.95 122.039 55.95C121.529 55.95 121.059 56.095 120.629 56.385C120.199 56.665 119.854 57.045 119.594 57.525C119.334 58.005 119.204 58.54 119.204 59.13ZM131.02 63.15C130.26 63.15 129.585 62.965 128.995 62.595C128.405 62.215 127.94 61.72 127.6 61.11C127.26 60.49 127.09 59.81 127.09 59.07C127.09 58.33 127.255 57.66 127.585 57.06C127.915 56.45 128.375 55.965 128.965 55.605C129.555 55.235 130.235 55.05 131.005 55.05C131.735 55.05 132.375 55.22 132.925 55.56C133.485 55.89 133.905 56.34 134.185 56.91L133.195 57.225C132.975 56.825 132.665 56.515 132.265 56.295C131.875 56.065 131.44 55.95 130.96 55.95C130.43 55.95 129.95 56.085 129.52 56.355C129.1 56.625 128.76 57 128.5 57.48C128.25 57.95 128.125 58.48 128.125 59.07C128.125 59.66 128.255 60.195 128.515 60.675C128.775 61.155 129.12 61.54 129.55 61.83C129.98 62.11 130.455 62.25 130.975 62.25C131.315 62.25 131.645 62.19 131.965 62.07C132.285 61.95 132.56 61.79 132.79 61.59C133.02 61.38 133.175 61.155 133.255 60.915L134.26 61.215C134.12 61.585 133.89 61.92 133.57 62.22C133.25 62.51 132.87 62.74 132.43 62.91C131.99 63.07 131.52 63.15 131.02 63.15ZM135.232 60.75C135.232 60.27 135.372 59.855 135.652 59.505C135.932 59.145 136.317 58.865 136.807 58.665C137.307 58.465 137.882 58.365 138.532 58.365C138.912 58.365 139.307 58.4 139.717 58.47C140.127 58.53 140.492 58.615 140.812 58.725V58.065C140.812 57.405 140.617 56.88 140.227 56.49C139.837 56.1 139.297 55.905 138.607 55.905C138.197 55.905 137.787 55.985 137.377 56.145C136.967 56.295 136.542 56.52 136.102 56.82L135.712 56.1C136.222 55.75 136.722 55.49 137.212 55.32C137.702 55.14 138.202 55.05 138.712 55.05C139.672 55.05 140.432 55.325 140.992 55.875C141.552 56.425 141.832 57.185 141.832 58.155V61.77C141.832 62.04 141.957 62.18 142.207 62.19V63C141.987 63.03 141.832 63.04 141.742 63.03C141.492 63.02 141.302 62.94 141.172 62.79C141.042 62.64 140.972 62.48 140.962 62.31L140.947 61.74C140.597 62.19 140.142 62.54 139.582 62.79C139.022 63.03 138.452 63.15 137.872 63.15C137.362 63.15 136.907 63.045 136.507 62.835C136.107 62.615 135.792 62.325 135.562 61.965C135.342 61.595 135.232 61.19 135.232 60.75ZM140.467 61.35C140.697 61.08 140.812 60.83 140.812 60.6V59.46C140.122 59.19 139.402 59.055 138.652 59.055C137.922 59.055 137.332 59.2 136.882 59.49C136.432 59.78 136.207 60.175 136.207 60.675C136.207 61.105 136.372 61.495 136.702 61.845C137.042 62.195 137.512 62.37 138.112 62.37C138.602 62.37 139.057 62.275 139.477 62.085C139.907 61.895 140.237 61.65 140.467 61.35ZM147.728 62.625C147.608 62.675 147.388 62.765 147.068 62.895C146.748 63.025 146.378 63.09 145.958 63.09C145.518 63.09 145.133 62.965 144.803 62.715C144.473 62.465 144.308 62.09 144.308 61.59V55.995H143.228V55.185H144.308V52.545H145.328V55.185H147.128V55.995H145.328V61.305C145.348 61.595 145.448 61.81 145.628 61.95C145.818 62.08 146.033 62.145 146.273 62.145C146.553 62.145 146.803 62.1 147.023 62.01C147.253 61.91 147.398 61.84 147.458 61.8L147.728 62.625ZM149.002 53.55V52.05H150.022V53.55H149.002ZM149.002 63V55.185H150.022V63H149.002ZM155.599 63.15C154.849 63.15 154.179 62.965 153.589 62.595C153.009 62.225 152.554 61.735 152.224 61.125C151.894 60.505 151.729 59.835 151.729 59.115C151.729 58.385 151.894 57.715 152.224 57.105C152.564 56.485 153.024 55.99 153.604 55.62C154.194 55.24 154.859 55.05 155.599 55.05C156.349 55.05 157.014 55.24 157.594 55.62C158.184 55.99 158.644 56.485 158.974 57.105C159.314 57.715 159.484 58.385 159.484 59.115C159.484 59.835 159.319 60.505 158.989 61.125C158.659 61.735 158.199 62.225 157.609 62.595C157.029 62.965 156.359 63.15 155.599 63.15ZM152.764 59.13C152.764 59.71 152.889 60.24 153.139 60.72C153.399 61.19 153.744 61.565 154.174 61.845C154.604 62.115 155.079 62.25 155.599 62.25C156.119 62.25 156.594 62.11 157.024 61.83C157.454 61.55 157.799 61.17 158.059 60.69C158.319 60.21 158.449 59.68 158.449 59.1C158.449 58.52 158.319 57.99 158.059 57.51C157.799 57.03 157.454 56.65 157.024 56.37C156.594 56.09 156.119 55.95 155.599 55.95C155.089 55.95 154.619 56.095 154.189 56.385C153.759 56.665 153.414 57.045 153.154 57.525C152.894 58.005 152.764 58.54 152.764 59.13ZM167.759 63H166.739V58.635C166.739 57.715 166.599 57.045 166.319 56.625C166.049 56.195 165.629 55.98 165.059 55.98C164.659 55.98 164.264 56.08 163.874 56.28C163.484 56.47 163.139 56.735 162.839 57.075C162.549 57.405 162.339 57.785 162.209 58.215V63H161.189V55.185H162.119V56.955C162.429 56.385 162.884 55.925 163.484 55.575C164.084 55.225 164.734 55.05 165.434 55.05C166.014 55.05 166.474 55.19 166.814 55.47C167.154 55.74 167.394 56.13 167.534 56.64C167.684 57.14 167.759 57.735 167.759 58.425V63Z" fill="#535353"/>
<path d="M123.456 93.26C123.56 93.332 123.744 93.42 124.008 93.524C124.272 93.62 124.584 93.668 124.944 93.668C125.368 93.668 125.688 93.576 125.904 93.392C126.12 93.2 126.264 92.904 126.336 92.504C126.408 92.104 126.444 91.584 126.444 90.944V86.48H128.1V90.812C128.1 91.452 128.064 92.036 127.992 92.564C127.92 93.092 127.78 93.548 127.572 93.932C127.364 94.316 127.048 94.612 126.624 94.82C126.208 95.028 125.652 95.132 124.956 95.132C124.572 95.132 124.228 95.088 123.924 95C123.62 94.912 123.34 94.78 123.084 94.604L123.456 93.26ZM129.077 93.14C129.077 92.732 129.189 92.376 129.413 92.072C129.645 91.76 129.965 91.52 130.373 91.352C130.781 91.184 131.249 91.1 131.777 91.1C132.041 91.1 132.309 91.124 132.581 91.172C132.853 91.212 133.089 91.272 133.289 91.352V91.016C133.289 90.616 133.169 90.308 132.929 90.092C132.697 89.876 132.349 89.768 131.885 89.768C131.541 89.768 131.213 89.828 130.901 89.948C130.589 90.068 130.261 90.244 129.917 90.476L129.401 89.42C129.817 89.148 130.241 88.944 130.673 88.808C131.113 88.672 131.573 88.604 132.053 88.604C132.949 88.604 133.645 88.828 134.141 89.276C134.645 89.724 134.897 90.364 134.897 91.196V93.2C134.897 93.376 134.925 93.5 134.981 93.572C135.037 93.636 135.137 93.676 135.281 93.692V95C135.137 95.032 135.005 95.052 134.885 95.06C134.773 95.076 134.677 95.084 134.597 95.084C134.277 95.084 134.033 95.012 133.865 94.868C133.697 94.724 133.597 94.548 133.565 94.34L133.529 94.016C133.249 94.376 132.905 94.652 132.497 94.844C132.097 95.028 131.685 95.12 131.261 95.12C130.837 95.12 130.461 95.036 130.133 94.868C129.805 94.692 129.545 94.456 129.353 94.16C129.169 93.856 129.077 93.516 129.077 93.14ZM132.989 93.464C133.189 93.272 133.289 93.088 133.289 92.912V92.276C132.873 92.108 132.453 92.024 132.029 92.024C131.605 92.024 131.261 92.116 130.997 92.3C130.733 92.476 130.601 92.712 130.601 93.008C130.601 93.248 130.697 93.464 130.889 93.656C131.081 93.848 131.357 93.944 131.717 93.944C131.957 93.944 132.189 93.9 132.413 93.812C132.645 93.724 132.837 93.608 132.989 93.464ZM140.696 95L138.86 92.288L138.008 93.128V95H136.4V86.24H138.008V91.544L140.54 88.724H142.244L139.904 91.388L142.412 95H140.696ZM142.601 93.14C142.601 92.732 142.713 92.376 142.937 92.072C143.169 91.76 143.489 91.52 143.897 91.352C144.305 91.184 144.773 91.1 145.301 91.1C145.565 91.1 145.833 91.124 146.105 91.172C146.377 91.212 146.613 91.272 146.813 91.352V91.016C146.813 90.616 146.693 90.308 146.453 90.092C146.221 89.876 145.873 89.768 145.409 89.768C145.065 89.768 144.737 89.828 144.425 89.948C144.113 90.068 143.785 90.244 143.441 90.476L142.925 89.42C143.341 89.148 143.765 88.944 144.197 88.808C144.637 88.672 145.097 88.604 145.577 88.604C146.473 88.604 147.169 88.828 147.665 89.276C148.169 89.724 148.421 90.364 148.421 91.196V93.2C148.421 93.376 148.449 93.5 148.505 93.572C148.561 93.636 148.661 93.676 148.805 93.692V95C148.661 95.032 148.529 95.052 148.409 95.06C148.297 95.076 148.201 95.084 148.121 95.084C147.801 95.084 147.557 95.012 147.389 94.868C147.221 94.724 147.121 94.548 147.089 94.34L147.053 94.016C146.773 94.376 146.429 94.652 146.021 94.844C145.621 95.028 145.209 95.12 144.785 95.12C144.361 95.12 143.985 95.036 143.657 94.868C143.329 94.692 143.069 94.456 142.877 94.16C142.693 93.856 142.601 93.516 142.601 93.14ZM146.513 93.464C146.713 93.272 146.813 93.088 146.813 92.912V92.276C146.397 92.108 145.977 92.024 145.553 92.024C145.129 92.024 144.785 92.116 144.521 92.3C144.257 92.476 144.125 92.712 144.125 93.008C144.125 93.248 144.221 93.464 144.413 93.656C144.605 93.848 144.881 93.944 145.241 93.944C145.481 93.944 145.713 93.9 145.937 93.812C146.169 93.724 146.361 93.608 146.513 93.464ZM153.667 90.104C153.179 90.104 152.743 90.2 152.359 90.392C151.975 90.576 151.699 90.844 151.531 91.196V95H149.923V88.712H151.399V90.056C151.615 89.624 151.895 89.284 152.239 89.036C152.591 88.788 152.959 88.652 153.343 88.628C153.511 88.628 153.619 88.632 153.667 88.64V90.104ZM158.332 94.676C158.116 94.772 157.848 94.868 157.528 94.964C157.216 95.06 156.892 95.108 156.556 95.108C156.26 95.108 155.988 95.056 155.74 94.952C155.492 94.848 155.292 94.684 155.14 94.46C154.996 94.228 154.924 93.928 154.924 93.56V89.948H154.096V88.712H154.924V86.672H156.532V88.712H157.852V89.948H156.532V93.02C156.532 93.236 156.588 93.392 156.7 93.488C156.82 93.584 156.964 93.632 157.132 93.632C157.3 93.632 157.464 93.604 157.624 93.548C157.784 93.492 157.912 93.444 158.008 93.404L158.332 94.676ZM158.738 93.14C158.738 92.732 158.85 92.376 159.074 92.072C159.306 91.76 159.626 91.52 160.034 91.352C160.442 91.184 160.91 91.1 161.438 91.1C161.702 91.1 161.97 91.124 162.242 91.172C162.514 91.212 162.75 91.272 162.95 91.352V91.016C162.95 90.616 162.83 90.308 162.59 90.092C162.358 89.876 162.01 89.768 161.546 89.768C161.202 89.768 160.874 89.828 160.562 89.948C160.25 90.068 159.922 90.244 159.578 90.476L159.062 89.42C159.478 89.148 159.902 88.944 160.334 88.808C160.774 88.672 161.234 88.604 161.714 88.604C162.61 88.604 163.306 88.828 163.802 89.276C164.306 89.724 164.558 90.364 164.558 91.196V93.2C164.558 93.376 164.586 93.5 164.642 93.572C164.698 93.636 164.798 93.676 164.942 93.692V95C164.798 95.032 164.666 95.052 164.546 95.06C164.434 95.076 164.338 95.084 164.258 95.084C163.938 95.084 163.694 95.012 163.526 94.868C163.358 94.724 163.258 94.548 163.226 94.34L163.19 94.016C162.91 94.376 162.566 94.652 162.158 94.844C161.758 95.028 161.346 95.12 160.922 95.12C160.498 95.12 160.122 95.036 159.794 94.868C159.466 94.692 159.206 94.456 159.014 94.16C158.83 93.856 158.738 93.516 158.738 93.14ZM162.65 93.464C162.85 93.272 162.95 93.088 162.95 92.912V92.276C162.534 92.108 162.114 92.024 161.69 92.024C161.266 92.024 160.922 92.116 160.658 92.3C160.394 92.476 160.262 92.712 160.262 93.008C160.262 93.248 160.358 93.464 160.55 93.656C160.742 93.848 161.018 93.944 161.378 93.944C161.618 93.944 161.85 93.9 162.074 93.812C162.306 93.724 162.498 93.608 162.65 93.464ZM166.204 96.38L166.528 94.952H166.024V93.272H167.416V94.952L166.924 96.38H166.204ZM171.888 95V86.48H173.544V95H171.888ZM181.01 95H179.402V91.472C179.402 90.968 179.314 90.6 179.138 90.368C178.962 90.136 178.718 90.02 178.406 90.02C178.19 90.02 177.97 90.076 177.746 90.188C177.53 90.3 177.334 90.456 177.158 90.656C176.982 90.848 176.854 91.072 176.774 91.328V95H175.166V88.712H176.618V89.876C176.85 89.484 177.186 89.176 177.626 88.952C178.066 88.72 178.562 88.604 179.114 88.604C179.506 88.604 179.826 88.676 180.074 88.82C180.322 88.956 180.514 89.144 180.65 89.384C180.786 89.616 180.878 89.88 180.926 90.176C180.982 90.472 181.01 90.772 181.01 91.076V95ZM182.024 91.856C182.024 91.256 182.144 90.708 182.384 90.212C182.624 89.716 182.956 89.324 183.38 89.036C183.804 88.748 184.288 88.604 184.832 88.604C185.296 88.604 185.712 88.72 186.08 88.952C186.456 89.176 186.748 89.464 186.956 89.816V86.24H188.564V93.2C188.564 93.376 188.592 93.5 188.648 93.572C188.704 93.636 188.8 93.676 188.936 93.692V95C188.648 95.056 188.42 95.084 188.252 95.084C187.964 95.084 187.724 95.012 187.532 94.868C187.348 94.724 187.244 94.536 187.22 94.304L187.196 93.908C186.964 94.3 186.648 94.6 186.248 94.808C185.856 95.016 185.444 95.12 185.012 95.12C184.428 95.12 183.912 94.976 183.464 94.688C183.016 94.392 182.664 94 182.408 93.512C182.152 93.016 182.024 92.464 182.024 91.856ZM186.956 92.696V91.196C186.828 90.844 186.608 90.552 186.296 90.32C185.984 90.088 185.664 89.972 185.336 89.972C185.008 89.972 184.72 90.064 184.472 90.248C184.224 90.424 184.032 90.66 183.896 90.956C183.76 91.244 183.692 91.556 183.692 91.892C183.692 92.236 183.768 92.552 183.92 92.84C184.072 93.12 184.276 93.344 184.532 93.512C184.796 93.672 185.096 93.752 185.432 93.752C185.736 93.752 186.036 93.652 186.332 93.452C186.636 93.252 186.844 93 186.956 92.696ZM193.046 95.12C192.358 95.12 191.766 94.972 191.27 94.676C190.782 94.372 190.406 93.972 190.142 93.476C189.878 92.98 189.746 92.444 189.746 91.868C189.746 91.284 189.878 90.744 190.142 90.248C190.414 89.752 190.794 89.356 191.282 89.06C191.778 88.756 192.366 88.604 193.046 88.604C193.726 88.604 194.31 88.756 194.798 89.06C195.294 89.356 195.674 89.752 195.938 90.248C196.202 90.744 196.334 91.284 196.334 91.868C196.334 92.444 196.202 92.98 195.938 93.476C195.674 93.972 195.294 94.372 194.798 94.676C194.31 94.972 193.726 95.12 193.046 95.12ZM191.402 91.868C191.402 92.236 191.474 92.564 191.618 92.852C191.762 93.132 191.958 93.352 192.206 93.512C192.454 93.672 192.734 93.752 193.046 93.752C193.35 93.752 193.626 93.672 193.874 93.512C194.122 93.344 194.318 93.12 194.462 92.84C194.614 92.552 194.69 92.224 194.69 91.856C194.69 91.496 194.614 91.176 194.462 90.896C194.318 90.608 194.122 90.384 193.874 90.224C193.626 90.056 193.35 89.972 193.046 89.972C192.734 89.972 192.454 90.056 192.206 90.224C191.958 90.384 191.762 90.608 191.618 90.896C191.474 91.176 191.402 91.5 191.402 91.868ZM203.264 95H201.656V91.472C201.656 90.968 201.568 90.6 201.392 90.368C201.216 90.136 200.972 90.02 200.66 90.02C200.444 90.02 200.224 90.076 200 90.188C199.784 90.3 199.588 90.456 199.412 90.656C199.236 90.848 199.108 91.072 199.028 91.328V95H197.42V88.712H198.872V89.876C199.104 89.484 199.44 89.176 199.88 88.952C200.32 88.72 200.816 88.604 201.368 88.604C201.76 88.604 202.08 88.676 202.328 88.82C202.576 88.956 202.768 89.144 202.904 89.384C203.04 89.616 203.132 89.88 203.18 90.176C203.236 90.472 203.264 90.772 203.264 91.076V95ZM207.578 95.12C206.898 95.12 206.31 94.972 205.814 94.676C205.326 94.38 204.946 93.988 204.674 93.5C204.402 93.004 204.266 92.468 204.266 91.892C204.266 91.3 204.398 90.756 204.662 90.26C204.934 89.756 205.318 89.356 205.814 89.06C206.31 88.756 206.902 88.604 207.59 88.604C208.278 88.604 208.866 88.756 209.354 89.06C209.842 89.356 210.214 89.752 210.47 90.248C210.734 90.736 210.866 91.264 210.866 91.832C210.866 92.04 210.854 92.22 210.83 92.372H205.97C206.01 92.86 206.19 93.244 206.51 93.524C206.838 93.804 207.214 93.944 207.638 93.944C207.958 93.944 208.258 93.868 208.538 93.716C208.826 93.556 209.022 93.348 209.126 93.092L210.506 93.476C210.274 93.956 209.902 94.352 209.39 94.664C208.878 94.968 208.274 95.12 207.578 95.12ZM205.934 91.352H209.222C209.174 90.88 208.994 90.5 208.682 90.212C208.378 89.916 208.006 89.768 207.566 89.768C207.134 89.768 206.762 89.916 206.45 90.212C206.146 90.5 205.974 90.88 205.934 91.352ZM214.161 95.12C213.625 95.12 213.113 95.032 212.625 94.856C212.137 94.68 211.717 94.42 211.365 94.076L211.941 93.032C212.317 93.336 212.685 93.56 213.045 93.704C213.405 93.848 213.757 93.92 214.101 93.92C214.413 93.92 214.661 93.864 214.845 93.752C215.037 93.64 215.133 93.472 215.133 93.248C215.133 93.016 215.017 92.86 214.785 92.78C214.553 92.692 214.229 92.584 213.813 92.456C213.349 92.312 212.961 92.164 212.649 92.012C212.337 91.86 212.101 91.676 211.941 91.46C211.789 91.244 211.713 90.964 211.713 90.62C211.713 90.004 211.945 89.512 212.409 89.144C212.873 88.776 213.489 88.592 214.257 88.592C214.705 88.592 215.129 88.664 215.529 88.808C215.929 88.944 216.293 89.168 216.621 89.48L215.973 90.5C215.357 90.02 214.761 89.78 214.185 89.78C213.929 89.78 213.701 89.828 213.501 89.924C213.309 90.02 213.213 90.188 213.213 90.428C213.213 90.652 213.305 90.812 213.489 90.908C213.681 91.004 213.969 91.108 214.353 91.22C214.849 91.372 215.269 91.52 215.613 91.664C215.965 91.808 216.229 91.992 216.405 92.216C216.589 92.44 216.681 92.744 216.681 93.128C216.681 93.752 216.453 94.24 215.997 94.592C215.541 94.944 214.929 95.12 214.161 95.12ZM217.775 87.836V86.24H219.383V87.836H217.775ZM217.775 95V88.712H219.383V95H217.775ZM220.402 93.14C220.402 92.732 220.514 92.376 220.738 92.072C220.97 91.76 221.29 91.52 221.698 91.352C222.106 91.184 222.574 91.1 223.102 91.1C223.366 91.1 223.634 91.124 223.906 91.172C224.178 91.212 224.414 91.272 224.614 91.352V91.016C224.614 90.616 224.494 90.308 224.254 90.092C224.022 89.876 223.674 89.768 223.21 89.768C222.866 89.768 222.538 89.828 222.226 89.948C221.914 90.068 221.586 90.244 221.242 90.476L220.726 89.42C221.142 89.148 221.566 88.944 221.998 88.808C222.438 88.672 222.898 88.604 223.378 88.604C224.274 88.604 224.97 88.828 225.466 89.276C225.97 89.724 226.222 90.364 226.222 91.196V93.2C226.222 93.376 226.25 93.5 226.306 93.572C226.362 93.636 226.462 93.676 226.606 93.692V95C226.462 95.032 226.33 95.052 226.21 95.06C226.098 95.076 226.002 95.084 225.922 95.084C225.602 95.084 225.358 95.012 225.19 94.868C225.022 94.724 224.922 94.548 224.89 94.34L224.854 94.016C224.574 94.376 224.23 94.652 223.822 94.844C223.422 95.028 223.01 95.12 222.586 95.12C222.162 95.12 221.786 95.036 221.458 94.868C221.13 94.692 220.87 94.456 220.678 94.16C220.494 93.856 220.402 93.516 220.402 93.14ZM224.314 93.464C224.514 93.272 224.614 93.088 224.614 92.912V92.276C224.198 92.108 223.778 92.024 223.354 92.024C222.93 92.024 222.586 92.116 222.322 92.3C222.058 92.476 221.926 92.712 221.926 93.008C221.926 93.248 222.022 93.464 222.214 93.656C222.406 93.848 222.682 93.944 223.042 93.944C223.282 93.944 223.514 93.9 223.738 93.812C223.97 93.724 224.162 93.608 224.314 93.464Z" fill="#535353"/>
<path d="M79 64C74.589 64 71 67.589 71 71.995C70.971 78.44 78.696 83.784 79 84C79 84 87.029 78.44 87 72C87 67.589 83.411 64 79 64ZM79 76C76.79 76 75 74.21 75 72C75 69.79 76.79 68 79 68C81.21 68 83 69.79 83 72C83 74.21 81.21 76 79 76Z" fill="#1F4590"/>
<path d="M371.335 63V52.35H374.95C376.08 52.35 377.02 52.59 377.77 53.07C378.53 53.54 379.1 54.18 379.48 54.99C379.86 55.79 380.05 56.68 380.05 57.66C380.05 58.74 379.84 59.68 379.42 60.48C379 61.28 378.41 61.9 377.65 62.34C376.89 62.78 375.99 63 374.95 63H371.335ZM379 57.66C379 56.81 378.84 56.055 378.52 55.395C378.21 54.735 377.75 54.22 377.14 53.85C376.54 53.47 375.81 53.28 374.95 53.28H372.385V62.07H374.95C375.83 62.07 376.57 61.875 377.17 61.485C377.77 61.095 378.225 60.57 378.535 59.91C378.845 59.25 379 58.5 379 57.66ZM381.159 60.75C381.159 60.27 381.299 59.855 381.579 59.505C381.859 59.145 382.244 58.865 382.734 58.665C383.234 58.465 383.809 58.365 384.459 58.365C384.839 58.365 385.234 58.4 385.644 58.47C386.054 58.53 386.419 58.615 386.739 58.725V58.065C386.739 57.405 386.544 56.88 386.154 56.49C385.764 56.1 385.224 55.905 384.534 55.905C384.124 55.905 383.714 55.985 383.304 56.145C382.894 56.295 382.469 56.52 382.029 56.82L381.639 56.1C382.149 55.75 382.649 55.49 383.139 55.32C383.629 55.14 384.129 55.05 384.639 55.05C385.599 55.05 386.359 55.325 386.919 55.875C387.479 56.425 387.759 57.185 387.759 58.155V61.77C387.759 62.04 387.884 62.18 388.134 62.19V63C387.914 63.03 387.759 63.04 387.669 63.03C387.419 63.02 387.229 62.94 387.099 62.79C386.969 62.64 386.899 62.48 386.889 62.31L386.874 61.74C386.524 62.19 386.069 62.54 385.509 62.79C384.949 63.03 384.379 63.15 383.799 63.15C383.289 63.15 382.834 63.045 382.434 62.835C382.034 62.615 381.719 62.325 381.489 61.965C381.269 61.595 381.159 61.19 381.159 60.75ZM386.394 61.35C386.624 61.08 386.739 60.83 386.739 60.6V59.46C386.049 59.19 385.329 59.055 384.579 59.055C383.849 59.055 383.259 59.2 382.809 59.49C382.359 59.78 382.134 60.175 382.134 60.675C382.134 61.105 382.299 61.495 382.629 61.845C382.969 62.195 383.439 62.37 384.039 62.37C384.529 62.37 384.984 62.275 385.404 62.085C385.834 61.895 386.164 61.65 386.394 61.35ZM393.654 62.625C393.534 62.675 393.314 62.765 392.994 62.895C392.674 63.025 392.304 63.09 391.884 63.09C391.444 63.09 391.059 62.965 390.729 62.715C390.399 62.465 390.234 62.09 390.234 61.59V55.995H389.154V55.185H390.234V52.545H391.254V55.185H393.054V55.995H391.254V61.305C391.274 61.595 391.374 61.81 391.554 61.95C391.744 62.08 391.959 62.145 392.199 62.145C392.479 62.145 392.729 62.1 392.949 62.01C393.179 61.91 393.324 61.84 393.384 61.8L393.654 62.625ZM398.172 63.15C397.422 63.15 396.752 62.965 396.162 62.595C395.572 62.225 395.107 61.73 394.767 61.11C394.427 60.49 394.257 59.81 394.257 59.07C394.257 58.34 394.422 57.67 394.752 57.06C395.092 56.45 395.557 55.965 396.147 55.605C396.737 55.235 397.407 55.05 398.157 55.05C398.927 55.05 399.602 55.235 400.182 55.605C400.762 55.975 401.212 56.465 401.532 57.075C401.862 57.675 402.027 58.335 402.027 59.055C402.027 59.215 402.022 59.35 402.012 59.46H395.322C395.372 60.02 395.532 60.52 395.802 60.96C396.072 61.39 396.417 61.735 396.837 61.995C397.257 62.245 397.717 62.37 398.217 62.37C398.727 62.37 399.207 62.24 399.657 61.98C400.107 61.72 400.427 61.38 400.617 60.96L401.502 61.2C401.342 61.58 401.092 61.92 400.752 62.22C400.422 62.51 400.037 62.74 399.597 62.91C399.157 63.07 398.682 63.15 398.172 63.15ZM395.292 58.725H401.067C401.027 58.165 400.872 57.67 400.602 57.24C400.332 56.8 399.987 56.46 399.567 56.22C399.147 55.97 398.682 55.845 398.172 55.845C397.662 55.845 397.197 55.97 396.777 56.22C396.357 56.46 396.012 56.8 395.742 57.24C395.482 57.67 395.332 58.165 395.292 58.725Z" fill="#535353"/>
<path d="M384.456 95C384.456 94.528 384.508 94.108 384.612 93.74C384.724 93.372 384.916 93.04 385.188 92.744C385.46 92.448 385.844 92.16 386.34 91.88C386.78 91.648 387.148 91.452 387.444 91.292C387.74 91.132 387.964 90.98 388.116 90.836C388.276 90.684 388.356 90.508 388.356 90.308C388.356 90.068 388.26 89.864 388.068 89.696C387.876 89.52 387.604 89.432 387.252 89.432C386.868 89.432 386.536 89.524 386.256 89.708C385.984 89.892 385.748 90.104 385.548 90.344L384.528 89.168C384.672 89.016 384.888 88.852 385.176 88.676C385.464 88.5 385.808 88.348 386.208 88.22C386.608 88.092 387.048 88.028 387.528 88.028C388.344 88.028 388.976 88.22 389.424 88.604C389.88 88.98 390.108 89.468 390.108 90.068C390.108 90.444 390.02 90.764 389.844 91.028C389.676 91.284 389.464 91.504 389.208 91.688C388.96 91.864 388.72 92.02 388.488 92.156C387.976 92.412 387.572 92.636 387.276 92.828C386.988 93.02 386.756 93.26 386.58 93.548H390.24V95H384.456ZM397.493 92.48C397.493 93.008 397.349 93.472 397.061 93.872C396.781 94.264 396.405 94.568 395.933 94.784C395.461 95 394.945 95.108 394.385 95.108C393.817 95.108 393.297 94.996 392.825 94.772C392.361 94.54 391.989 94.224 391.709 93.824C391.437 93.416 391.301 92.948 391.301 92.42C391.301 92.1 391.369 91.812 391.505 91.556C391.641 91.292 391.809 91.068 392.009 90.884C392.217 90.7 392.425 90.552 392.633 90.44C392.337 90.296 392.085 90.08 391.877 89.792C391.669 89.504 391.565 89.188 391.565 88.844C391.565 88.46 391.649 88.124 391.817 87.836C391.985 87.54 392.209 87.292 392.489 87.092C392.769 86.892 393.073 86.74 393.401 86.636C393.737 86.532 394.069 86.48 394.397 86.48C394.717 86.48 395.045 86.532 395.381 86.636C395.717 86.732 396.025 86.88 396.305 87.08C396.585 87.28 396.809 87.528 396.977 87.824C397.153 88.112 397.241 88.448 397.241 88.832C397.241 89.176 397.133 89.496 396.917 89.792C396.701 90.088 396.441 90.304 396.137 90.44C396.489 90.616 396.801 90.88 397.073 91.232C397.353 91.576 397.493 91.992 397.493 92.48ZM393.197 88.892C393.197 89.108 393.257 89.292 393.377 89.444C393.497 89.596 393.649 89.712 393.833 89.792C394.017 89.864 394.205 89.9 394.397 89.9C394.581 89.9 394.765 89.864 394.949 89.792C395.133 89.712 395.285 89.596 395.405 89.444C395.533 89.292 395.597 89.104 395.597 88.88C395.597 88.584 395.477 88.348 395.237 88.172C394.997 87.996 394.713 87.908 394.385 87.908C394.065 87.908 393.785 88 393.545 88.184C393.313 88.36 393.197 88.596 393.197 88.892ZM395.861 92.384C395.861 92.112 395.789 91.884 395.645 91.7C395.501 91.508 395.317 91.364 395.093 91.268C394.869 91.164 394.633 91.112 394.385 91.112C394.129 91.112 393.889 91.164 393.665 91.268C393.449 91.372 393.273 91.52 393.137 91.712C393.001 91.904 392.933 92.128 392.933 92.384C392.933 92.64 393.005 92.864 393.149 93.056C393.293 93.24 393.477 93.388 393.701 93.5C393.925 93.604 394.157 93.656 394.397 93.656C394.653 93.656 394.889 93.6 395.105 93.488C395.329 93.376 395.509 93.228 395.645 93.044C395.789 92.852 395.861 92.632 395.861 92.384ZM406.068 86.48L400.116 95H398.34L404.28 86.48H406.068ZM412.659 91.484C412.659 92.188 412.523 92.816 412.251 93.368C411.987 93.912 411.619 94.34 411.147 94.652C410.683 94.964 410.155 95.12 409.563 95.12C408.971 95.12 408.439 94.964 407.967 94.652C407.503 94.34 407.135 93.912 406.863 93.368C406.599 92.816 406.467 92.188 406.467 91.484C406.467 90.78 406.599 90.156 406.863 89.612C407.135 89.06 407.503 88.628 407.967 88.316C408.439 87.996 408.971 87.836 409.563 87.836C410.155 87.836 410.683 87.996 411.147 88.316C411.619 88.628 411.987 89.06 412.251 89.612C412.523 90.156 412.659 90.78 412.659 91.484ZM411.039 91.484C411.039 90.844 410.899 90.324 410.619 89.924C410.347 89.516 409.995 89.312 409.563 89.312C409.115 89.312 408.755 89.516 408.483 89.924C408.211 90.324 408.075 90.844 408.075 91.484C408.075 92.124 408.211 92.644 408.483 93.044C408.755 93.444 409.115 93.644 409.563 93.644C409.995 93.644 410.347 93.444 410.619 93.044C410.899 92.644 411.039 92.124 411.039 91.484ZM419.97 92.48C419.97 93.008 419.826 93.472 419.538 93.872C419.258 94.264 418.882 94.568 418.41 94.784C417.938 95 417.422 95.108 416.862 95.108C416.294 95.108 415.774 94.996 415.302 94.772C414.838 94.54 414.466 94.224 414.186 93.824C413.914 93.416 413.778 92.948 413.778 92.42C413.778 92.1 413.846 91.812 413.982 91.556C414.118 91.292 414.286 91.068 414.486 90.884C414.694 90.7 414.902 90.552 415.11 90.44C414.814 90.296 414.562 90.08 414.354 89.792C414.146 89.504 414.042 89.188 414.042 88.844C414.042 88.46 414.126 88.124 414.294 87.836C414.462 87.54 414.686 87.292 414.966 87.092C415.246 86.892 415.55 86.74 415.878 86.636C416.214 86.532 416.546 86.48 416.874 86.48C417.194 86.48 417.522 86.532 417.858 86.636C418.194 86.732 418.502 86.88 418.782 87.08C419.062 87.28 419.286 87.528 419.454 87.824C419.63 88.112 419.718 88.448 419.718 88.832C419.718 89.176 419.61 89.496 419.394 89.792C419.178 90.088 418.918 90.304 418.614 90.44C418.966 90.616 419.278 90.88 419.55 91.232C419.83 91.576 419.97 91.992 419.97 92.48ZM415.674 88.892C415.674 89.108 415.734 89.292 415.854 89.444C415.974 89.596 416.126 89.712 416.31 89.792C416.494 89.864 416.682 89.9 416.874 89.9C417.058 89.9 417.242 89.864 417.426 89.792C417.61 89.712 417.762 89.596 417.882 89.444C418.01 89.292 418.074 89.104 418.074 88.88C418.074 88.584 417.954 88.348 417.714 88.172C417.474 87.996 417.19 87.908 416.862 87.908C416.542 87.908 416.262 88 416.022 88.184C415.79 88.36 415.674 88.596 415.674 88.892ZM418.338 92.384C418.338 92.112 418.266 91.884 418.122 91.7C417.978 91.508 417.794 91.364 417.57 91.268C417.346 91.164 417.11 91.112 416.862 91.112C416.606 91.112 416.366 91.164 416.142 91.268C415.926 91.372 415.75 91.52 415.614 91.712C415.478 91.904 415.41 92.128 415.41 92.384C415.41 92.64 415.482 92.864 415.626 93.056C415.77 93.24 415.954 93.388 416.178 93.5C416.402 93.604 416.634 93.656 416.874 93.656C417.13 93.656 417.366 93.6 417.582 93.488C417.806 93.376 417.986 93.228 418.122 93.044C418.266 92.852 418.338 92.632 418.338 92.384ZM428.544 86.48L422.592 95H420.816L426.756 86.48H428.544ZM429.022 95C429.022 94.528 429.074 94.108 429.178 93.74C429.29 93.372 429.482 93.04 429.754 92.744C430.026 92.448 430.41 92.16 430.906 91.88C431.346 91.648 431.714 91.452 432.01 91.292C432.306 91.132 432.53 90.98 432.682 90.836C432.842 90.684 432.922 90.508 432.922 90.308C432.922 90.068 432.826 89.864 432.634 89.696C432.442 89.52 432.17 89.432 431.818 89.432C431.434 89.432 431.102 89.524 430.822 89.708C430.55 89.892 430.314 90.104 430.114 90.344L429.094 89.168C429.238 89.016 429.454 88.852 429.742 88.676C430.03 88.5 430.374 88.348 430.774 88.22C431.174 88.092 431.614 88.028 432.094 88.028C432.91 88.028 433.542 88.22 433.99 88.604C434.446 88.98 434.674 89.468 434.674 90.068C434.674 90.444 434.586 90.764 434.41 91.028C434.242 91.284 434.03 91.504 433.774 91.688C433.526 91.864 433.286 92.02 433.054 92.156C432.542 92.412 432.138 92.636 431.842 92.828C431.554 93.02 431.322 93.26 431.146 93.548H434.806V95H429.022ZM442.12 91.484C442.12 92.188 441.984 92.816 441.712 93.368C441.448 93.912 441.08 94.34 440.608 94.652C440.144 94.964 439.616 95.12 439.024 95.12C438.432 95.12 437.9 94.964 437.428 94.652C436.964 94.34 436.596 93.912 436.324 93.368C436.06 92.816 435.928 92.188 435.928 91.484C435.928 90.78 436.06 90.156 436.324 89.612C436.596 89.06 436.964 88.628 437.428 88.316C437.9 87.996 438.432 87.836 439.024 87.836C439.616 87.836 440.144 87.996 440.608 88.316C441.08 88.628 441.448 89.06 441.712 89.612C441.984 90.156 442.12 90.78 442.12 91.484ZM440.5 91.484C440.5 90.844 440.36 90.324 440.08 89.924C439.808 89.516 439.456 89.312 439.024 89.312C438.576 89.312 438.216 89.516 437.944 89.924C437.672 90.324 437.536 90.844 437.536 91.484C437.536 92.124 437.672 92.644 437.944 93.044C438.216 93.444 438.576 93.644 439.024 93.644C439.456 93.644 439.808 93.444 440.08 93.044C440.36 92.644 440.5 92.124 440.5 91.484ZM443.167 95C443.167 94.528 443.219 94.108 443.323 93.74C443.435 93.372 443.627 93.04 443.899 92.744C444.171 92.448 444.555 92.16 445.051 91.88C445.491 91.648 445.859 91.452 446.155 91.292C446.451 91.132 446.675 90.98 446.827 90.836C446.987 90.684 447.067 90.508 447.067 90.308C447.067 90.068 446.971 89.864 446.779 89.696C446.587 89.52 446.315 89.432 445.963 89.432C445.579 89.432 445.247 89.524 444.967 89.708C444.695 89.892 444.459 90.104 444.259 90.344L443.239 89.168C443.383 89.016 443.599 88.852 443.887 88.676C444.175 88.5 444.519 88.348 444.919 88.22C445.319 88.092 445.759 88.028 446.239 88.028C447.055 88.028 447.687 88.22 448.135 88.604C448.591 88.98 448.819 89.468 448.819 90.068C448.819 90.444 448.731 90.764 448.555 91.028C448.387 91.284 448.175 91.504 447.919 91.688C447.671 91.864 447.431 92.02 447.199 92.156C446.687 92.412 446.283 92.636 445.987 92.828C445.699 93.02 445.467 93.26 445.291 93.548H448.951V95H443.167ZM455.124 93.548V95H450.252V93.548H451.956V89.912C451.86 90.032 451.696 90.16 451.464 90.296C451.24 90.432 450.992 90.548 450.72 90.644C450.456 90.74 450.22 90.788 450.012 90.788V89.288C450.156 89.288 450.328 89.244 450.528 89.156C450.736 89.06 450.94 88.948 451.14 88.82C451.348 88.692 451.524 88.568 451.668 88.448C451.82 88.32 451.916 88.22 451.956 88.148H453.6V93.548H455.124Z" fill="#535353"/>
<path d="M409.833 57.125L413.5 60.7917L417.167 57.125" stroke="#535353" stroke-linecap="round" stroke-linejoin="round"/>
<circle cx="591.5" cy="76.5" r="33.5" fill="#FFA451"/>
<g clip-path="url(#clip1_0_1)">
<path d="M589.812 84.9375C595.404 84.9375 599.938 80.4044 599.938 74.8125C599.938 69.2206 595.404 64.6875 589.812 64.6875C584.221 64.6875 579.688 69.2206 579.688 74.8125C579.688 80.4044 584.221 84.9375 589.812 84.9375Z" stroke="white" stroke-width="2" stroke-linecap="round" stroke-linejoin="round"/>
<path d="M597.406 82.4062L603.312 88.3125" stroke="white" stroke-width="2" stroke-linecap="round" stroke-linejoin="round"/>
</g>
<path d="M324 81C324 82.7 325.3 84 327 84H341C342.7 84 344 82.7 344 81V73H324V81ZM341 66H339V65C339 64.4 338.6 64 338 64C337.4 64 337 64.4 337 65V66H331V65C331 64.4 330.6 64 330 64C329.4 64 329 64.4 329 65V66H327C325.3 66 324 67.3 324 69V71H344V69C344 67.3 342.7 66 341 66Z" fill="#1F4590"/>
<g filter="url(#filter7_b_0_1)">
<rect x="241" y="-14" width="205" height="45" rx="22.5" fill="#1F4590"/>
<path d="M287.035 13.575C286.335 13.575 285.68 13.435 285.07 13.155C284.46 12.875 283.92 12.49 283.45 12C282.99 11.5 282.63 10.92 282.37 10.26C282.11 9.6 281.98 8.885 281.98 8.115C281.98 7.385 282.11 6.7 282.37 6.06C282.63 5.41 282.995 4.84 283.465 4.35C283.935 3.86 284.485 3.475 285.115 3.195C285.745 2.915 286.43 2.775 287.17 2.775C288.16 2.775 289.015 2.99 289.735 3.42C290.455 3.84 290.995 4.4 291.355 5.1L289.81 6.24C289.54 5.72 289.16 5.32 288.67 5.04C288.19 4.75 287.665 4.605 287.095 4.605C286.495 4.605 285.965 4.77 285.505 5.1C285.055 5.43 284.7 5.865 284.44 6.405C284.19 6.945 284.065 7.535 284.065 8.175C284.065 8.845 284.2 9.45 284.47 9.99C284.74 10.53 285.11 10.96 285.58 11.28C286.06 11.59 286.605 11.745 287.215 11.745C288.245 11.745 289.175 11.26 290.005 10.29V9.54H287.86V8.025H291.715V13.5H290.005V12.3C289.145 13.15 288.155 13.575 287.035 13.575ZM296.929 13.65C296.079 13.65 295.344 13.465 294.724 13.095C294.114 12.725 293.639 12.235 293.299 11.625C292.959 11.005 292.789 10.335 292.789 9.615C292.789 8.875 292.954 8.195 293.284 7.575C293.624 6.945 294.104 6.445 294.724 6.075C295.344 5.695 296.084 5.505 296.944 5.505C297.804 5.505 298.539 5.695 299.149 6.075C299.759 6.445 300.224 6.94 300.544 7.56C300.874 8.17 301.039 8.83 301.039 9.54C301.039 9.8 301.024 10.025 300.994 10.215H294.919C294.969 10.825 295.194 11.305 295.594 11.655C296.004 12.005 296.474 12.18 297.004 12.18C297.404 12.18 297.779 12.085 298.129 11.895C298.489 11.695 298.734 11.435 298.864 11.115L300.589 11.595C300.299 12.195 299.834 12.69 299.194 13.08C298.554 13.46 297.799 13.65 296.929 13.65ZM294.874 8.94H298.984C298.924 8.35 298.699 7.875 298.309 7.515C297.929 7.145 297.464 6.96 296.914 6.96C296.374 6.96 295.909 7.145 295.519 7.515C295.139 7.875 294.924 8.35 294.874 8.94ZM306.9 13.095C306.63 13.215 306.295 13.335 305.895 13.455C305.505 13.575 305.1 13.635 304.68 13.635C304.31 13.635 303.97 13.57 303.66 13.44C303.35 13.31 303.1 13.105 302.91 12.825C302.73 12.535 302.64 12.16 302.64 11.7V7.185H301.605V5.64H302.64V3.09H304.65V5.64H306.3V7.185H304.65V11.025C304.65 11.295 304.72 11.49 304.86 11.61C305.01 11.73 305.19 11.79 305.4 11.79C305.61 11.79 305.815 11.755 306.015 11.685C306.215 11.615 306.375 11.555 306.495 11.505L306.9 13.095ZM316.261 13.095C315.991 13.215 315.656 13.335 315.256 13.455C314.866 13.575 314.461 13.635 314.041 13.635C313.671 13.635 313.331 13.57 313.021 13.44C312.711 13.31 312.461 13.105 312.271 12.825C312.091 12.535 312.001 12.16 312.001 11.7V7.185H310.966V5.64H312.001V3.09H314.011V5.64H315.661V7.185H314.011V11.025C314.011 11.295 314.081 11.49 314.221 11.61C314.371 11.73 314.551 11.79 314.761 11.79C314.971 11.79 315.176 11.755 315.376 11.685C315.576 11.615 315.736 11.555 315.856 11.505L316.261 13.095ZM324.613 13.5H322.603V9.09C322.603 8.48 322.483 8.025 322.243 7.725C322.013 7.425 321.693 7.275 321.283 7.275C321.033 7.275 320.773 7.345 320.503 7.485C320.243 7.625 320.003 7.82 319.783 8.07C319.573 8.31 319.418 8.59 319.318 8.91V13.5H317.308V2.55H319.318V7.095C319.608 6.595 320.003 6.205 320.503 5.925C321.003 5.645 321.548 5.505 322.138 5.505C322.808 5.505 323.323 5.655 323.683 5.955C324.043 6.255 324.288 6.64 324.418 7.11C324.548 7.58 324.613 8.075 324.613 8.595V13.5ZM330.005 13.65C329.155 13.65 328.42 13.465 327.8 13.095C327.19 12.725 326.715 12.235 326.375 11.625C326.035 11.005 325.865 10.335 325.865 9.615C325.865 8.875 326.03 8.195 326.36 7.575C326.7 6.945 327.18 6.445 327.8 6.075C328.42 5.695 329.16 5.505 330.02 5.505C330.88 5.505 331.615 5.695 332.225 6.075C332.835 6.445 333.3 6.94 333.62 7.56C333.95 8.17 334.115 8.83 334.115 9.54C334.115 9.8 334.1 10.025 334.07 10.215H327.995C328.045 10.825 328.27 11.305 328.67 11.655C329.08 12.005 329.55 12.18 330.08 12.18C330.48 12.18 330.855 12.085 331.205 11.895C331.565 11.695 331.81 11.435 331.94 11.115L333.665 11.595C333.375 12.195 332.91 12.69 332.27 13.08C331.63 13.46 330.875 13.65 330.005 13.65ZM327.95 8.94H332.06C332 8.35 331.775 7.875 331.385 7.515C331.005 7.145 330.54 6.96 329.99 6.96C329.45 6.96 328.985 7.145 328.595 7.515C328.215 7.875 328 8.35 327.95 8.94ZM341.838 13.65C341.168 13.65 340.528 13.54 339.918 13.32C339.308 13.1 338.783 12.775 338.343 12.345L339.063 11.04C339.533 11.42 339.993 11.7 340.443 11.88C340.893 12.06 341.333 12.15 341.763 12.15C342.153 12.15 342.463 12.08 342.693 11.94C342.933 11.8 343.053 11.59 343.053 11.31C343.053 11.02 342.908 10.825 342.618 10.725C342.328 10.615 341.923 10.48 341.403 10.32C340.823 10.14 340.338 9.955 339.948 9.765C339.558 9.575 339.263 9.345 339.063 9.075C338.873 8.805 338.778 8.455 338.778 8.025C338.778 7.255 339.068 6.64 339.648 6.18C340.228 5.72 340.998 5.49 341.958 5.49C342.518 5.49 343.048 5.58 343.548 5.76C344.048 5.93 344.503 6.21 344.913 6.6L344.103 7.875C343.333 7.275 342.588 6.975 341.868 6.975C341.548 6.975 341.263 7.035 341.013 7.155C340.773 7.275 340.653 7.485 340.653 7.785C340.653 8.065 340.768 8.265 340.998 8.385C341.238 8.505 341.598 8.635 342.078 8.775C342.698 8.965 343.223 9.15 343.653 9.33C344.093 9.51 344.423 9.74 344.643 10.02C344.873 10.3 344.988 10.68 344.988 11.16C344.988 11.94 344.703 12.55 344.133 12.99C343.563 13.43 342.798 13.65 341.838 13.65ZM350.015 13.65C349.165 13.65 348.43 13.46 347.81 13.08C347.19 12.7 346.71 12.2 346.37 11.58C346.03 10.96 345.86 10.29 345.86 9.57C345.86 8.84 346.025 8.165 346.355 7.545C346.695 6.925 347.175 6.43 347.795 6.06C348.415 5.69 349.15 5.505 350 5.505C350.86 5.505 351.59 5.69 352.19 6.06C352.8 6.43 353.255 6.915 353.555 7.515L351.59 8.115C351.24 7.515 350.705 7.215 349.985 7.215C349.595 7.215 349.245 7.315 348.935 7.515C348.625 7.705 348.38 7.98 348.2 8.34C348.02 8.69 347.93 9.1 347.93 9.57C347.93 10.03 348.02 10.44 348.2 10.8C348.39 11.15 348.64 11.43 348.95 11.64C349.26 11.84 349.605 11.94 349.985 11.94C350.345 11.94 350.675 11.855 350.975 11.685C351.285 11.505 351.5 11.28 351.62 11.01L353.585 11.61C353.315 12.2 352.865 12.69 352.235 13.08C351.615 13.46 350.875 13.65 350.015 13.65ZM362.127 13.5H360.117V9.09C360.117 8.48 359.997 8.025 359.757 7.725C359.527 7.425 359.207 7.275 358.797 7.275C358.547 7.275 358.287 7.345 358.017 7.485C357.757 7.625 357.517 7.82 357.297 8.07C357.087 8.31 356.932 8.59 356.832 8.91V13.5H354.822V2.55H356.832V7.095C357.122 6.595 357.517 6.205 358.017 5.925C358.517 5.645 359.062 5.505 359.652 5.505C360.322 5.505 360.837 5.655 361.197 5.955C361.557 6.255 361.802 6.64 361.932 7.11C362.062 7.58 362.127 8.075 362.127 8.595V13.5ZM367.52 13.65C366.67 13.65 365.935 13.465 365.315 13.095C364.705 12.725 364.23 12.235 363.89 11.625C363.55 11.005 363.38 10.335 363.38 9.615C363.38 8.875 363.545 8.195 363.875 7.575C364.215 6.945 364.695 6.445 365.315 6.075C365.935 5.695 366.675 5.505 367.535 5.505C368.395 5.505 369.13 5.695 369.74 6.075C370.35 6.445 370.815 6.94 371.135 7.56C371.465 8.17 371.63 8.83 371.63 9.54C371.63 9.8 371.615 10.025 371.585 10.215H365.51C365.56 10.825 365.785 11.305 366.185 11.655C366.595 12.005 367.065 12.18 367.595 12.18C367.995 12.18 368.37 12.085 368.72 11.895C369.08 11.695 369.325 11.435 369.455 11.115L371.18 11.595C370.89 12.195 370.425 12.69 369.785 13.08C369.145 13.46 368.39 13.65 367.52 13.65ZM365.465 8.94H369.575C369.515 8.35 369.29 7.875 368.9 7.515C368.52 7.145 368.055 6.96 367.505 6.96C366.965 6.96 366.5 7.145 366.11 7.515C365.73 7.875 365.515 8.35 365.465 8.94ZM372.374 9.57C372.374 8.82 372.524 8.135 372.824 7.515C373.124 6.895 373.539 6.405 374.069 6.045C374.599 5.685 375.204 5.505 375.884 5.505C376.464 5.505 376.984 5.65 377.444 5.94C377.914 6.22 378.279 6.58 378.539 7.02V2.55H380.549V11.25C380.549 11.47 380.584 11.625 380.654 11.715C380.724 11.795 380.844 11.845 381.014 11.865V13.5C380.654 13.57 380.369 13.605 380.159 13.605C379.799 13.605 379.499 13.515 379.259 13.335C379.029 13.155 378.899 12.92 378.869 12.63L378.839 12.135C378.549 12.625 378.154 13 377.654 13.26C377.164 13.52 376.649 13.65 376.109 13.65C375.379 13.65 374.734 13.47 374.174 13.11C373.614 12.74 373.174 12.25 372.854 11.64C372.534 11.02 372.374 10.33 372.374 9.57ZM378.539 10.62V8.745C378.379 8.305 378.104 7.94 377.714 7.65C377.324 7.36 376.924 7.215 376.514 7.215C376.104 7.215 375.744 7.33 375.434 7.56C375.124 7.78 374.884 8.075 374.714 8.445C374.544 8.805 374.459 9.195 374.459 9.615C374.459 10.045 374.554 10.44 374.744 10.8C374.934 11.15 375.189 11.43 375.509 11.64C375.839 11.84 376.214 11.94 376.634 11.94C377.014 11.94 377.389 11.815 377.759 11.565C378.139 11.315 378.399 11 378.539 10.62ZM382.447 10.56V5.64H384.457V10.125C384.457 11.335 384.892 11.94 385.762 11.94C386.152 11.94 386.527 11.825 386.887 11.595C387.257 11.355 387.557 10.995 387.787 10.515V5.64H389.797V11.25C389.797 11.47 389.832 11.625 389.902 11.715C389.972 11.795 390.097 11.845 390.277 11.865V13.5C390.077 13.54 389.907 13.565 389.767 13.575C389.637 13.585 389.517 13.59 389.407 13.59C389.047 13.59 388.752 13.51 388.522 13.35C388.302 13.18 388.172 12.95 388.132 12.66L388.087 12.03C387.737 12.57 387.287 12.975 386.737 13.245C386.187 13.515 385.582 13.65 384.922 13.65C384.112 13.65 383.497 13.39 383.077 12.87C382.657 12.34 382.447 11.57 382.447 10.56ZM391.78 2.55H393.79V10.98C393.79 11.35 393.85 11.595 393.97 11.715C394.09 11.835 394.255 11.895 394.465 11.895C394.625 11.895 394.79 11.875 394.96 11.835C395.13 11.795 395.28 11.745 395.41 11.685L395.68 13.215C395.41 13.345 395.095 13.445 394.735 13.515C394.375 13.585 394.05 13.62 393.76 13.62C393.13 13.62 392.64 13.455 392.29 13.125C391.95 12.785 391.78 12.305 391.78 11.685V2.55ZM400.201 13.65C399.351 13.65 398.616 13.465 397.996 13.095C397.386 12.725 396.911 12.235 396.571 11.625C396.231 11.005 396.061 10.335 396.061 9.615C396.061 8.875 396.226 8.195 396.556 7.575C396.896 6.945 397.376 6.445 397.996 6.075C398.616 5.695 399.356 5.505 400.216 5.505C401.076 5.505 401.811 5.695 402.421 6.075C403.031 6.445 403.496 6.94 403.816 7.56C404.146 8.17 404.311 8.83 404.311 9.54C404.311 9.8 404.296 10.025 404.266 10.215H398.191C398.241 10.825 398.466 11.305 398.866 11.655C399.276 12.005 399.746 12.18 400.276 12.18C400.676 12.18 401.051 12.085 401.401 11.895C401.761 11.695 402.006 11.435 402.136 11.115L403.861 11.595C403.571 12.195 403.106 12.69 402.466 13.08C401.826 13.46 401.071 13.65 400.201 13.65ZM398.146 8.94H402.256C402.196 8.35 401.971 7.875 401.581 7.515C401.201 7.145 400.736 6.96 400.186 6.96C399.646 6.96 399.181 7.145 398.791 7.515C398.411 7.875 398.196 8.35 398.146 8.94Z" fill="white"/>
</g>
<path d="M140.04 162V152.77H143.914C144.33 152.77 144.711 152.857 145.058 153.03C145.413 153.203 145.717 153.433 145.968 153.719C146.228 154.005 146.427 154.326 146.566 154.681C146.705 155.036 146.774 155.4 146.774 155.773C146.774 156.293 146.657 156.783 146.423 157.242C146.189 157.701 145.864 158.074 145.448 158.36C145.032 158.646 144.547 158.789 143.992 158.789H141.496V162H140.04ZM141.496 157.502H143.901C144.308 157.502 144.642 157.337 144.902 157.008C145.162 156.679 145.292 156.267 145.292 155.773C145.292 155.435 145.223 155.14 145.084 154.889C144.945 154.629 144.763 154.425 144.538 154.278C144.321 154.131 144.083 154.057 143.823 154.057H141.496V157.502ZM150.886 162.13C150.175 162.13 149.555 161.97 149.027 161.649C148.507 161.32 148.104 160.891 147.818 160.362C147.532 159.825 147.389 159.24 147.389 158.607C147.389 157.974 147.532 157.394 147.818 156.865C148.112 156.328 148.52 155.899 149.04 155.578C149.568 155.249 150.184 155.084 150.886 155.084C151.588 155.084 152.199 155.249 152.719 155.578C153.247 155.899 153.655 156.328 153.941 156.865C154.235 157.394 154.383 157.974 154.383 158.607C154.383 159.24 154.24 159.825 153.954 160.362C153.668 160.891 153.26 161.32 152.732 161.649C152.212 161.97 151.596 162.13 150.886 162.13ZM148.858 158.62C148.858 159.053 148.949 159.443 149.131 159.79C149.313 160.137 149.555 160.41 149.859 160.609C150.162 160.808 150.504 160.908 150.886 160.908C151.258 160.908 151.596 160.808 151.9 160.609C152.212 160.401 152.459 160.124 152.641 159.777C152.823 159.43 152.914 159.04 152.914 158.607C152.914 158.174 152.823 157.784 152.641 157.437C152.459 157.09 152.212 156.817 151.9 156.618C151.596 156.41 151.258 156.306 150.886 156.306C150.513 156.306 150.171 156.41 149.859 156.618C149.555 156.817 149.313 157.095 149.131 157.45C148.949 157.797 148.858 158.187 148.858 158.62ZM159.512 162.13C158.966 162.13 158.485 162 158.069 161.74C157.653 161.48 157.324 161.142 157.081 160.726V164.769H155.651V155.201H156.912V156.423C157.172 156.016 157.51 155.691 157.926 155.448C158.342 155.205 158.806 155.084 159.317 155.084C159.941 155.084 160.491 155.249 160.968 155.578C161.453 155.899 161.835 156.328 162.112 156.865C162.389 157.394 162.528 157.97 162.528 158.594C162.528 159.253 162.398 159.851 162.138 160.388C161.878 160.917 161.523 161.341 161.072 161.662C160.621 161.974 160.101 162.13 159.512 162.13ZM159.044 160.908C159.451 160.908 159.802 160.8 160.097 160.583C160.4 160.358 160.634 160.072 160.799 159.725C160.972 159.37 161.059 158.993 161.059 158.594C161.059 158.178 160.964 157.797 160.773 157.45C160.591 157.103 160.34 156.826 160.019 156.618C159.707 156.41 159.347 156.306 158.94 156.306C158.697 156.306 158.442 156.367 158.173 156.488C157.913 156.609 157.683 156.77 157.484 156.969C157.285 157.168 157.15 157.394 157.081 157.645V159.426C157.254 159.842 157.519 160.193 157.874 160.479C158.238 160.765 158.628 160.908 159.044 160.908ZM163.749 159.361V155.201H165.179V159.075C165.179 160.297 165.612 160.908 166.479 160.908C166.886 160.908 167.272 160.782 167.636 160.531C168 160.271 168.282 159.907 168.481 159.439V155.201H169.911V160.388C169.911 160.553 169.941 160.67 170.002 160.739C170.063 160.808 170.162 160.847 170.301 160.856V162C170.154 162.026 170.032 162.043 169.937 162.052C169.842 162.061 169.751 162.065 169.664 162.065C169.404 162.065 169.187 161.996 169.014 161.857C168.841 161.718 168.741 161.532 168.715 161.298L168.689 160.622C168.386 161.116 167.991 161.493 167.506 161.753C167.021 162.004 166.488 162.13 165.907 162.13C165.196 162.13 164.659 161.896 164.295 161.428C163.931 160.96 163.749 160.271 163.749 159.361ZM171.749 152.51H173.179V160.037C173.179 160.384 173.231 160.605 173.335 160.7C173.439 160.795 173.569 160.843 173.725 160.843C173.898 160.843 174.063 160.826 174.219 160.791C174.375 160.756 174.505 160.713 174.609 160.661L174.817 161.792C174.609 161.879 174.362 161.952 174.076 162.013C173.79 162.074 173.534 162.104 173.309 162.104C172.824 162.104 172.442 161.97 172.165 161.701C171.888 161.424 171.749 161.042 171.749 160.557V152.51ZM175.152 160.011C175.152 159.578 175.273 159.201 175.516 158.88C175.759 158.551 176.097 158.299 176.53 158.126C176.972 157.944 177.479 157.853 178.051 157.853C178.354 157.853 178.662 157.879 178.974 157.931C179.295 157.974 179.576 158.039 179.819 158.126V157.697C179.819 157.22 179.676 156.848 179.39 156.579C179.104 156.31 178.692 156.176 178.155 156.176C177.782 156.176 177.423 156.241 177.076 156.371C176.729 156.501 176.37 156.692 175.997 156.943L175.516 155.981C175.967 155.686 176.417 155.465 176.868 155.318C177.327 155.162 177.808 155.084 178.311 155.084C179.221 155.084 179.936 155.327 180.456 155.812C180.985 156.289 181.249 156.969 181.249 157.853V160.388C181.249 160.553 181.275 160.67 181.327 160.739C181.388 160.808 181.487 160.847 181.626 160.856V162C181.496 162.026 181.379 162.043 181.275 162.052C181.171 162.061 181.084 162.065 181.015 162.065C180.703 162.065 180.469 161.991 180.313 161.844C180.166 161.688 180.079 161.515 180.053 161.324L180.014 160.934C179.719 161.315 179.342 161.61 178.883 161.818C178.424 162.026 177.96 162.13 177.492 162.13C177.041 162.13 176.638 162.039 176.283 161.857C175.928 161.666 175.65 161.411 175.451 161.09C175.252 160.769 175.152 160.41 175.152 160.011ZM179.481 160.427C179.706 160.202 179.819 159.989 179.819 159.79V159.01C179.308 158.819 178.788 158.724 178.259 158.724C177.739 158.724 177.314 158.832 176.985 159.049C176.664 159.257 176.504 159.539 176.504 159.894C176.504 160.189 176.621 160.462 176.855 160.713C177.098 160.956 177.444 161.077 177.895 161.077C178.198 161.077 178.493 161.016 178.779 160.895C179.065 160.774 179.299 160.618 179.481 160.427ZM186.806 156.436C186.251 156.453 185.757 156.583 185.324 156.826C184.899 157.06 184.596 157.398 184.414 157.84V162H182.984V155.201H184.31V156.722C184.544 156.254 184.852 155.881 185.233 155.604C185.614 155.318 186.017 155.162 186.442 155.136C186.52 155.136 186.589 155.136 186.65 155.136C186.711 155.136 186.763 155.14 186.806 155.149V156.436ZM193.184 162.13C192.612 162.13 192.071 162.035 191.559 161.844C191.048 161.653 190.61 161.376 190.246 161.012L190.779 160.05C191.169 160.397 191.559 160.648 191.949 160.804C192.339 160.96 192.734 161.038 193.132 161.038C193.531 161.038 193.856 160.964 194.107 160.817C194.359 160.661 194.484 160.436 194.484 160.141C194.484 159.933 194.419 159.773 194.289 159.66C194.159 159.547 193.969 159.456 193.717 159.387C193.475 159.318 193.18 159.231 192.833 159.127C192.348 158.98 191.941 158.828 191.611 158.672C191.282 158.507 191.035 158.308 190.87 158.074C190.706 157.84 190.623 157.541 190.623 157.177C190.623 156.518 190.87 156.007 191.364 155.643C191.858 155.27 192.504 155.084 193.301 155.084C193.795 155.084 194.25 155.162 194.666 155.318C195.091 155.465 195.464 155.699 195.784 156.02L195.173 156.969C194.584 156.432 193.934 156.163 193.223 156.163C192.911 156.163 192.621 156.224 192.352 156.345C192.092 156.466 191.962 156.692 191.962 157.021C191.962 157.298 192.079 157.498 192.313 157.619C192.547 157.74 192.894 157.87 193.353 158.009C193.873 158.165 194.32 158.321 194.692 158.477C195.074 158.624 195.364 158.819 195.563 159.062C195.771 159.296 195.875 159.621 195.875 160.037C195.875 160.696 195.628 161.211 195.134 161.584C194.64 161.948 193.99 162.13 193.184 162.13ZM200.233 162.13C199.531 162.13 198.916 161.97 198.387 161.649C197.858 161.328 197.447 160.904 197.152 160.375C196.857 159.838 196.71 159.253 196.71 158.62C196.71 157.979 196.857 157.389 197.152 156.852C197.447 156.315 197.858 155.886 198.387 155.565C198.916 155.244 199.535 155.084 200.246 155.084C200.957 155.084 201.572 155.249 202.092 155.578C202.612 155.899 203.011 156.323 203.288 156.852C203.574 157.381 203.717 157.948 203.717 158.555C203.717 158.772 203.704 158.945 203.678 159.075H198.231C198.257 159.474 198.365 159.825 198.556 160.128C198.755 160.423 199.002 160.657 199.297 160.83C199.6 160.995 199.93 161.077 200.285 161.077C200.666 161.077 201.026 160.982 201.364 160.791C201.702 160.6 201.936 160.349 202.066 160.037L203.288 160.388C203.054 160.899 202.664 161.32 202.118 161.649C201.581 161.97 200.952 162.13 200.233 162.13ZM198.192 158.126H202.3C202.265 157.736 202.153 157.394 201.962 157.099C201.771 156.796 201.524 156.562 201.221 156.397C200.926 156.224 200.597 156.137 200.233 156.137C199.878 156.137 199.548 156.224 199.245 156.397C198.95 156.562 198.708 156.796 198.517 157.099C198.326 157.394 198.218 157.736 198.192 158.126ZM204.389 160.011C204.389 159.578 204.511 159.201 204.753 158.88C204.996 158.551 205.334 158.299 205.767 158.126C206.209 157.944 206.716 157.853 207.288 157.853C207.592 157.853 207.899 157.879 208.211 157.931C208.532 157.974 208.814 158.039 209.056 158.126V157.697C209.056 157.22 208.913 156.848 208.627 156.579C208.341 156.31 207.93 156.176 207.392 156.176C207.02 156.176 206.66 156.241 206.313 156.371C205.967 156.501 205.607 156.692 205.234 156.943L204.753 155.981C205.204 155.686 205.655 155.465 206.105 155.318C206.565 155.162 207.046 155.084 207.548 155.084C208.458 155.084 209.173 155.327 209.693 155.812C210.222 156.289 210.486 156.969 210.486 157.853V160.388C210.486 160.553 210.512 160.67 210.564 160.739C210.625 160.808 210.725 160.847 210.863 160.856V162C210.733 162.026 210.616 162.043 210.512 162.052C210.408 162.061 210.322 162.065 210.252 162.065C209.94 162.065 209.706 161.991 209.55 161.844C209.403 161.688 209.316 161.515 209.29 161.324L209.251 160.934C208.957 161.315 208.58 161.61 208.12 161.818C207.661 162.026 207.197 162.13 206.729 162.13C206.279 162.13 205.876 162.039 205.52 161.857C205.165 161.666 204.888 161.411 204.688 161.09C204.489 160.769 204.389 160.41 204.389 160.011ZM208.718 160.427C208.944 160.202 209.056 159.989 209.056 159.79V159.01C208.545 158.819 208.025 158.724 207.496 158.724C206.976 158.724 206.552 158.832 206.222 159.049C205.902 159.257 205.741 159.539 205.741 159.894C205.741 160.189 205.858 160.462 206.092 160.713C206.335 160.956 206.682 161.077 207.132 161.077C207.436 161.077 207.73 161.016 208.016 160.895C208.302 160.774 208.536 160.618 208.718 160.427ZM216.043 156.436C215.489 156.453 214.995 156.583 214.561 156.826C214.137 157.06 213.833 157.398 213.651 157.84V162H212.221V155.201H213.547V156.722C213.781 156.254 214.089 155.881 214.47 155.604C214.852 155.318 215.255 155.162 215.679 155.136C215.757 155.136 215.827 155.136 215.887 155.136C215.948 155.136 216 155.14 216.043 155.149V156.436ZM220.05 162.13C219.348 162.13 218.733 161.97 218.204 161.649C217.676 161.32 217.264 160.886 216.969 160.349C216.675 159.812 216.527 159.227 216.527 158.594C216.527 157.961 216.67 157.381 216.956 156.852C217.251 156.315 217.658 155.886 218.178 155.565C218.707 155.244 219.331 155.084 220.05 155.084C220.752 155.084 221.355 155.24 221.857 155.552C222.369 155.855 222.75 156.263 223.001 156.774L221.61 157.216C221.454 156.93 221.233 156.709 220.947 156.553C220.67 156.388 220.362 156.306 220.024 156.306C219.643 156.306 219.296 156.406 218.984 156.605C218.681 156.796 218.438 157.064 218.256 157.411C218.083 157.758 217.996 158.152 217.996 158.594C217.996 159.036 218.087 159.43 218.269 159.777C218.46 160.124 218.707 160.401 219.01 160.609C219.322 160.808 219.665 160.908 220.037 160.908C220.384 160.908 220.713 160.817 221.025 160.635C221.337 160.453 221.545 160.232 221.649 159.972L223.053 160.388C222.828 160.899 222.451 161.32 221.922 161.649C221.394 161.97 220.77 162.13 220.05 162.13ZM230.328 162H228.898V158.191C228.898 157.576 228.785 157.116 228.56 156.813C228.335 156.51 228.018 156.358 227.611 156.358C227.351 156.358 227.087 156.427 226.818 156.566C226.558 156.705 226.324 156.895 226.116 157.138C225.908 157.372 225.756 157.645 225.661 157.957V162H224.231V152.51H225.661V156.566C225.921 156.098 226.276 155.734 226.727 155.474C227.178 155.214 227.663 155.084 228.183 155.084C228.746 155.084 229.184 155.214 229.496 155.474C229.808 155.725 230.025 156.063 230.146 156.488C230.267 156.904 230.328 157.359 230.328 157.853V162ZM235.2 156.917V155.266H236.383V156.917H235.2ZM235.2 162V160.336H236.383V162H235.2ZM241.488 162V152.783H242.944V157.528L247.286 152.77H248.898L245.258 156.852L249.106 162H247.455L244.335 157.775L242.944 159.218V162H241.488ZM249.595 159.361V155.201H251.025V159.075C251.025 160.297 251.458 160.908 252.325 160.908C252.732 160.908 253.118 160.782 253.482 160.531C253.846 160.271 254.127 159.907 254.327 159.439V155.201H255.757V160.388C255.757 160.553 255.787 160.67 255.848 160.739C255.908 160.808 256.008 160.847 256.147 160.856V162C255.999 162.026 255.878 162.043 255.783 162.052C255.687 162.061 255.596 162.065 255.51 162.065C255.25 162.065 255.033 161.996 254.86 161.857C254.686 161.718 254.587 161.532 254.561 161.298L254.535 160.622C254.231 161.116 253.837 161.493 253.352 161.753C252.866 162.004 252.333 162.13 251.753 162.13C251.042 162.13 250.505 161.896 250.141 161.428C249.777 160.96 249.595 160.271 249.595 159.361ZM261.352 161.649C261.17 161.736 260.919 161.835 260.598 161.948C260.277 162.052 259.935 162.104 259.571 162.104C259.12 162.104 258.73 161.983 258.401 161.74C258.08 161.497 257.92 161.103 257.92 160.557V156.306H257.023V155.201H257.92V152.965H259.35V155.201H260.832V156.306H259.35V160.102C259.367 160.345 259.441 160.522 259.571 160.635C259.71 160.739 259.879 160.791 260.078 160.791C260.277 160.791 260.468 160.756 260.65 160.687C260.832 160.618 260.966 160.561 261.053 160.518L261.352 161.649ZM261.848 160.011C261.848 159.578 261.97 159.201 262.212 158.88C262.455 158.551 262.793 158.299 263.226 158.126C263.668 157.944 264.175 157.853 264.747 157.853C265.051 157.853 265.358 157.879 265.67 157.931C265.991 157.974 266.273 158.039 266.515 158.126V157.697C266.515 157.22 266.372 156.848 266.086 156.579C265.8 156.31 265.389 156.176 264.851 156.176C264.479 156.176 264.119 156.241 263.772 156.371C263.426 156.501 263.066 156.692 262.693 156.943L262.212 155.981C262.663 155.686 263.114 155.465 263.564 155.318C264.024 155.162 264.505 155.084 265.007 155.084C265.917 155.084 266.632 155.327 267.152 155.812C267.681 156.289 267.945 156.969 267.945 157.853V160.388C267.945 160.553 267.971 160.67 268.023 160.739C268.084 160.808 268.184 160.847 268.322 160.856V162C268.192 162.026 268.075 162.043 267.971 162.052C267.867 162.061 267.781 162.065 267.711 162.065C267.399 162.065 267.165 161.991 267.009 161.844C266.862 161.688 266.775 161.515 266.749 161.324L266.71 160.934C266.416 161.315 266.039 161.61 265.579 161.818C265.12 162.026 264.656 162.13 264.188 162.13C263.738 162.13 263.335 162.039 262.979 161.857C262.624 161.666 262.347 161.411 262.147 161.09C261.948 160.769 261.848 160.41 261.848 160.011ZM266.177 160.427C266.403 160.202 266.515 159.989 266.515 159.79V159.01C266.004 158.819 265.484 158.724 264.955 158.724C264.435 158.724 264.011 158.832 263.681 159.049C263.361 159.257 263.2 159.539 263.2 159.894C263.2 160.189 263.317 160.462 263.551 160.713C263.794 160.956 264.141 161.077 264.591 161.077C264.895 161.077 265.189 161.016 265.475 160.895C265.761 160.774 265.995 160.618 266.177 160.427ZM276.558 162.13C276.038 162.13 275.566 162.009 275.141 161.766C274.717 161.515 274.387 161.181 274.153 160.765V162H272.892V152.51H274.322V156.488C274.591 156.055 274.925 155.712 275.323 155.461C275.731 155.21 276.207 155.084 276.753 155.084C277.36 155.084 277.889 155.249 278.339 155.578C278.79 155.907 279.141 156.345 279.392 156.891C279.644 157.428 279.769 158.009 279.769 158.633C279.769 159.274 279.626 159.859 279.34 160.388C279.063 160.917 278.682 161.341 278.196 161.662C277.711 161.974 277.165 162.13 276.558 162.13ZM276.181 160.908C276.597 160.908 276.966 160.804 277.286 160.596C277.607 160.379 277.854 160.098 278.027 159.751C278.209 159.404 278.3 159.032 278.3 158.633C278.3 158.226 278.214 157.844 278.04 157.489C277.876 157.134 277.642 156.848 277.338 156.631C277.035 156.414 276.684 156.306 276.285 156.306C275.852 156.306 275.462 156.449 275.115 156.735C274.769 157.021 274.504 157.368 274.322 157.775V159.569C274.392 159.829 274.526 160.059 274.725 160.258C274.925 160.457 275.154 160.618 275.414 160.739C275.683 160.852 275.939 160.908 276.181 160.908ZM284.136 162.13C283.434 162.13 282.819 161.97 282.29 161.649C281.762 161.328 281.35 160.904 281.055 160.375C280.761 159.838 280.613 159.253 280.613 158.62C280.613 157.979 280.761 157.389 281.055 156.852C281.35 156.315 281.762 155.886 282.29 155.565C282.819 155.244 283.439 155.084 284.149 155.084C284.86 155.084 285.475 155.249 285.995 155.578C286.515 155.899 286.914 156.323 287.191 156.852C287.477 157.381 287.62 157.948 287.62 158.555C287.62 158.772 287.607 158.945 287.581 159.075H282.134C282.16 159.474 282.269 159.825 282.459 160.128C282.659 160.423 282.906 160.657 283.2 160.83C283.504 160.995 283.833 161.077 284.188 161.077C284.57 161.077 284.929 160.982 285.267 160.791C285.605 160.6 285.839 160.349 285.969 160.037L287.191 160.388C286.957 160.899 286.567 161.32 286.021 161.649C285.484 161.97 284.856 162.13 284.136 162.13ZM282.095 158.126H286.203C286.169 157.736 286.056 157.394 285.865 157.099C285.675 156.796 285.428 156.562 285.124 156.397C284.83 156.224 284.5 156.137 284.136 156.137C283.781 156.137 283.452 156.224 283.148 156.397C282.854 156.562 282.611 156.796 282.42 157.099C282.23 157.394 282.121 157.736 282.095 158.126ZM288.293 160.011C288.293 159.578 288.414 159.201 288.657 158.88C288.899 158.551 289.237 158.299 289.671 158.126C290.113 157.944 290.62 157.853 291.192 157.853C291.495 157.853 291.803 157.879 292.115 157.931C292.435 157.974 292.717 158.039 292.96 158.126V157.697C292.96 157.22 292.817 156.848 292.531 156.579C292.245 156.31 291.833 156.176 291.296 156.176C290.923 156.176 290.563 156.241 290.217 156.371C289.87 156.501 289.51 156.692 289.138 156.943L288.657 155.981C289.107 155.686 289.558 155.465 290.009 155.318C290.468 155.162 290.949 155.084 291.452 155.084C292.362 155.084 293.077 155.327 293.597 155.812C294.125 156.289 294.39 156.969 294.39 157.853V160.388C294.39 160.553 294.416 160.67 294.468 160.739C294.528 160.808 294.628 160.847 294.767 160.856V162C294.637 162.026 294.52 162.043 294.416 162.052C294.312 162.061 294.225 162.065 294.156 162.065C293.844 162.065 293.61 161.991 293.454 161.844C293.306 161.688 293.22 161.515 293.194 161.324L293.155 160.934C292.86 161.315 292.483 161.61 292.024 161.818C291.564 162.026 291.101 162.13 290.633 162.13C290.182 162.13 289.779 162.039 289.424 161.857C289.068 161.666 288.791 161.411 288.592 161.09C288.392 160.769 288.293 160.41 288.293 160.011ZM292.622 160.427C292.847 160.202 292.96 159.989 292.96 159.79V159.01C292.448 158.819 291.928 158.724 291.4 158.724C290.88 158.724 290.455 158.832 290.126 159.049C289.805 159.257 289.645 159.539 289.645 159.894C289.645 160.189 289.762 160.462 289.996 160.713C290.238 160.956 290.585 161.077 291.036 161.077C291.339 161.077 291.634 161.016 291.92 160.895C292.206 160.774 292.44 160.618 292.622 160.427ZM299.206 162.13C298.504 162.13 297.888 161.97 297.36 161.649C296.831 161.32 296.419 160.886 296.125 160.349C295.83 159.812 295.683 159.227 295.683 158.594C295.683 157.961 295.826 157.381 296.112 156.852C296.406 156.315 296.814 155.886 297.334 155.565C297.862 155.244 298.486 155.084 299.206 155.084C299.908 155.084 300.51 155.24 301.013 155.552C301.524 155.855 301.905 156.263 302.157 156.774L300.766 157.216C300.61 156.93 300.389 156.709 300.103 156.553C299.825 156.388 299.518 156.306 299.18 156.306C298.798 156.306 298.452 156.406 298.14 156.605C297.836 156.796 297.594 157.064 297.412 157.411C297.238 157.758 297.152 158.152 297.152 158.594C297.152 159.036 297.243 159.43 297.425 159.777C297.615 160.124 297.862 160.401 298.166 160.609C298.478 160.808 298.82 160.908 299.193 160.908C299.539 160.908 299.869 160.817 300.181 160.635C300.493 160.453 300.701 160.232 300.805 159.972L302.209 160.388C301.983 160.899 301.606 161.32 301.078 161.649C300.549 161.97 299.925 162.13 299.206 162.13ZM309.483 162H308.053V158.191C308.053 157.576 307.941 157.116 307.715 156.813C307.49 156.51 307.174 156.358 306.766 156.358C306.506 156.358 306.242 156.427 305.973 156.566C305.713 156.705 305.479 156.895 305.271 157.138C305.063 157.372 304.912 157.645 304.816 157.957V162H303.386V152.51H304.816V156.566C305.076 156.098 305.432 155.734 305.882 155.474C306.333 155.214 306.818 155.084 307.338 155.084C307.902 155.084 308.339 155.214 308.651 155.474C308.963 155.725 309.18 156.063 309.301 156.488C309.423 156.904 309.483 157.359 309.483 157.853V162ZM311.234 163.261L311.546 161.922H311.078V160.336H312.365V161.922L311.91 163.261H311.234ZM317.406 162V152.77H321.423C321.839 152.77 322.221 152.857 322.567 153.03C322.914 153.203 323.213 153.433 323.464 153.719C323.724 154.005 323.924 154.326 324.062 154.681C324.21 155.036 324.283 155.4 324.283 155.773C324.283 156.189 324.205 156.583 324.049 156.956C323.902 157.32 323.694 157.636 323.425 157.905C323.157 158.174 322.84 158.369 322.476 158.49L324.647 162H323.009L321.007 158.789H318.862V162H317.406ZM318.862 157.502H321.41C321.679 157.502 321.917 157.424 322.125 157.268C322.333 157.103 322.498 156.891 322.619 156.631C322.741 156.371 322.801 156.085 322.801 155.773C322.801 155.452 322.732 155.166 322.593 154.915C322.455 154.655 322.273 154.447 322.047 154.291C321.822 154.135 321.584 154.057 321.332 154.057H318.862V157.502ZM325.211 160.011C325.211 159.578 325.332 159.201 325.575 158.88C325.817 158.551 326.155 158.299 326.589 158.126C327.031 157.944 327.538 157.853 328.11 157.853C328.413 157.853 328.721 157.879 329.033 157.931C329.353 157.974 329.635 158.039 329.878 158.126V157.697C329.878 157.22 329.735 156.848 329.449 156.579C329.163 156.31 328.751 156.176 328.214 156.176C327.841 156.176 327.481 156.241 327.135 156.371C326.788 156.501 326.428 156.692 326.056 156.943L325.575 155.981C326.025 155.686 326.476 155.465 326.927 155.318C327.386 155.162 327.867 155.084 328.37 155.084C329.28 155.084 329.995 155.327 330.515 155.812C331.043 156.289 331.308 156.969 331.308 157.853V160.388C331.308 160.553 331.334 160.67 331.386 160.739C331.446 160.808 331.546 160.847 331.685 160.856V162C331.555 162.026 331.438 162.043 331.334 162.052C331.23 162.061 331.143 162.065 331.074 162.065C330.762 162.065 330.528 161.991 330.372 161.844C330.224 161.688 330.138 161.515 330.112 161.324L330.073 160.934C329.778 161.315 329.401 161.61 328.942 161.818C328.482 162.026 328.019 162.13 327.551 162.13C327.1 162.13 326.697 162.039 326.342 161.857C325.986 161.666 325.709 161.411 325.51 161.09C325.31 160.769 325.211 160.41 325.211 160.011ZM329.54 160.427C329.765 160.202 329.878 159.989 329.878 159.79V159.01C329.366 158.819 328.846 158.724 328.318 158.724C327.798 158.724 327.373 158.832 327.044 159.049C326.723 159.257 326.563 159.539 326.563 159.894C326.563 160.189 326.68 160.462 326.914 160.713C327.156 160.956 327.503 161.077 327.954 161.077C328.257 161.077 328.552 161.016 328.838 160.895C329.124 160.774 329.358 160.618 329.54 160.427ZM333.121 154.083V152.51H334.551V154.083H333.121ZM332.328 164.483C332.016 164.483 331.721 164.435 331.444 164.34C331.158 164.245 330.906 164.097 330.69 163.898L331.327 162.936C331.439 163.04 331.569 163.114 331.717 163.157C331.864 163.209 332.011 163.235 332.159 163.235C332.41 163.235 332.631 163.14 332.822 162.949C333.021 162.767 333.121 162.533 333.121 162.247V155.201H334.551V162.143C334.551 162.602 334.447 163.005 334.239 163.352C334.039 163.707 333.771 163.985 333.433 164.184C333.095 164.383 332.726 164.483 332.328 164.483ZM335.773 160.011C335.773 159.578 335.895 159.201 336.137 158.88C336.38 158.551 336.718 158.299 337.151 158.126C337.593 157.944 338.1 157.853 338.672 157.853C338.976 157.853 339.283 157.879 339.595 157.931C339.916 157.974 340.198 158.039 340.44 158.126V157.697C340.44 157.22 340.297 156.848 340.011 156.579C339.725 156.31 339.314 156.176 338.776 156.176C338.404 156.176 338.044 156.241 337.697 156.371C337.351 156.501 336.991 156.692 336.618 156.943L336.137 155.981C336.588 155.686 337.039 155.465 337.489 155.318C337.949 155.162 338.43 155.084 338.932 155.084C339.842 155.084 340.557 155.327 341.077 155.812C341.606 156.289 341.87 156.969 341.87 157.853V160.388C341.87 160.553 341.896 160.67 341.948 160.739C342.009 160.808 342.109 160.847 342.247 160.856V162C342.117 162.026 342 162.043 341.896 162.052C341.792 162.061 341.706 162.065 341.636 162.065C341.324 162.065 341.09 161.991 340.934 161.844C340.787 161.688 340.7 161.515 340.674 161.324L340.635 160.934C340.341 161.315 339.964 161.61 339.504 161.818C339.045 162.026 338.581 162.13 338.113 162.13C337.663 162.13 337.26 162.039 336.904 161.857C336.549 161.666 336.272 161.411 336.072 161.09C335.873 160.769 335.773 160.41 335.773 160.011ZM340.102 160.427C340.328 160.202 340.44 159.989 340.44 159.79V159.01C339.929 158.819 339.409 158.724 338.88 158.724C338.36 158.724 337.936 158.832 337.606 159.049C337.286 159.257 337.125 159.539 337.125 159.894C337.125 160.189 337.242 160.462 337.476 160.713C337.719 160.956 338.066 161.077 338.516 161.077C338.82 161.077 339.114 161.016 339.4 160.895C339.686 160.774 339.92 160.618 340.102 160.427ZM349.258 152.77H350.636L354.224 162H352.69L351.715 159.491H348.153L347.191 162H345.644L349.258 152.77ZM351.429 158.412L349.947 154.369L348.413 158.412H351.429ZM365.583 162H364.153V158.191C364.153 157.567 364.049 157.108 363.841 156.813C363.633 156.51 363.33 156.358 362.931 156.358C362.533 156.358 362.16 156.51 361.813 156.813C361.475 157.108 361.237 157.493 361.098 157.97V162H359.668V158.191C359.668 157.55 359.564 157.086 359.356 156.8C359.148 156.505 358.849 156.358 358.459 156.358C358.061 156.358 357.688 156.505 357.341 156.8C357.003 157.095 356.761 157.48 356.613 157.957V162H355.183V155.201H356.483V156.566C356.743 156.089 357.094 155.725 357.536 155.474C357.978 155.214 358.481 155.084 359.044 155.084C359.608 155.084 360.05 155.231 360.37 155.526C360.7 155.821 360.903 156.189 360.981 156.631C361.571 155.6 362.424 155.084 363.542 155.084C364.08 155.084 364.496 155.214 364.79 155.474C365.085 155.725 365.289 156.063 365.401 156.488C365.523 156.904 365.583 157.359 365.583 157.853V162ZM371.092 162.13C370.546 162.13 370.065 162 369.649 161.74C369.233 161.48 368.904 161.142 368.661 160.726V164.769H367.231V155.201H368.492V156.423C368.752 156.016 369.09 155.691 369.506 155.448C369.922 155.205 370.386 155.084 370.897 155.084C371.521 155.084 372.071 155.249 372.548 155.578C373.033 155.899 373.415 156.328 373.692 156.865C373.969 157.394 374.108 157.97 374.108 158.594C374.108 159.253 373.978 159.851 373.718 160.388C373.458 160.917 373.103 161.341 372.652 161.662C372.201 161.974 371.681 162.13 371.092 162.13ZM370.624 160.908C371.031 160.908 371.382 160.8 371.677 160.583C371.98 160.358 372.214 160.072 372.379 159.725C372.552 159.37 372.639 158.993 372.639 158.594C372.639 158.178 372.544 157.797 372.353 157.45C372.171 157.103 371.92 156.826 371.599 156.618C371.287 156.41 370.927 156.306 370.52 156.306C370.277 156.306 370.022 156.367 369.753 156.488C369.493 156.609 369.263 156.77 369.064 156.969C368.865 157.168 368.73 157.394 368.661 157.645V159.426C368.834 159.842 369.099 160.193 369.454 160.479C369.818 160.765 370.208 160.908 370.624 160.908ZM374.9 160.011C374.9 159.578 375.021 159.201 375.264 158.88C375.507 158.551 375.845 158.299 376.278 158.126C376.72 157.944 377.227 157.853 377.799 157.853C378.102 157.853 378.41 157.879 378.722 157.931C379.043 157.974 379.324 158.039 379.567 158.126V157.697C379.567 157.22 379.424 156.848 379.138 156.579C378.852 156.31 378.44 156.176 377.903 156.176C377.53 156.176 377.171 156.241 376.824 156.371C376.477 156.501 376.118 156.692 375.745 156.943L375.264 155.981C375.715 155.686 376.165 155.465 376.616 155.318C377.075 155.162 377.556 155.084 378.059 155.084C378.969 155.084 379.684 155.327 380.204 155.812C380.733 156.289 380.997 156.969 380.997 157.853V160.388C380.997 160.553 381.023 160.67 381.075 160.739C381.136 160.808 381.235 160.847 381.374 160.856V162C381.244 162.026 381.127 162.043 381.023 162.052C380.919 162.061 380.832 162.065 380.763 162.065C380.451 162.065 380.217 161.991 380.061 161.844C379.914 161.688 379.827 161.515 379.801 161.324L379.762 160.934C379.467 161.315 379.09 161.61 378.631 161.818C378.172 162.026 377.708 162.13 377.24 162.13C376.789 162.13 376.386 162.039 376.031 161.857C375.676 161.666 375.398 161.411 375.199 161.09C375 160.769 374.9 160.41 374.9 160.011ZM379.229 160.427C379.454 160.202 379.567 159.989 379.567 159.79V159.01C379.056 158.819 378.536 158.724 378.007 158.724C377.487 158.724 377.062 158.832 376.733 159.049C376.412 159.257 376.252 159.539 376.252 159.894C376.252 160.189 376.369 160.462 376.603 160.713C376.846 160.956 377.192 161.077 377.643 161.077C377.946 161.077 378.241 161.016 378.527 160.895C378.813 160.774 379.047 160.618 379.229 160.427ZM386.464 161.649C386.282 161.736 386.031 161.835 385.71 161.948C385.39 162.052 385.047 162.104 384.683 162.104C384.233 162.104 383.843 161.983 383.513 161.74C383.193 161.497 383.032 161.103 383.032 160.557V156.306H382.135V155.201H383.032V152.965H384.462V155.201H385.944V156.306H384.462V160.102C384.48 160.345 384.553 160.522 384.683 160.635C384.822 160.739 384.991 160.791 385.19 160.791C385.39 160.791 385.58 160.756 385.762 160.687C385.944 160.618 386.079 160.561 386.165 160.518L386.464 161.649ZM398.103 159.621C398.103 160.115 397.973 160.54 397.713 160.895C397.453 161.25 397.106 161.523 396.673 161.714C396.248 161.905 395.776 162 395.256 162H390.849V152.77H395.607C396.04 152.77 396.413 152.887 396.725 153.121C397.037 153.346 397.279 153.641 397.453 154.005C397.626 154.369 397.713 154.742 397.713 155.123C397.713 155.574 397.596 155.998 397.362 156.397C397.136 156.787 396.811 157.077 396.387 157.268C396.907 157.424 397.323 157.71 397.635 158.126C397.947 158.533 398.103 159.032 398.103 159.621ZM392.305 154.031V156.748H394.983C395.347 156.748 395.65 156.622 395.893 156.371C396.135 156.111 396.257 155.786 396.257 155.396C396.257 154.997 396.144 154.672 395.919 154.421C395.693 154.161 395.407 154.031 395.061 154.031H392.305ZM396.608 159.348C396.608 158.967 396.486 158.633 396.244 158.347C396.01 158.061 395.711 157.918 395.347 157.918H392.305V160.739H395.256C395.637 160.739 395.958 160.605 396.218 160.336C396.478 160.059 396.608 159.729 396.608 159.348ZM402.52 162.13C401.818 162.13 401.203 161.97 400.674 161.649C400.145 161.328 399.734 160.904 399.439 160.375C399.144 159.838 398.997 159.253 398.997 158.62C398.997 157.979 399.144 157.389 399.439 156.852C399.734 156.315 400.145 155.886 400.674 155.565C401.203 155.244 401.822 155.084 402.533 155.084C403.244 155.084 403.859 155.249 404.379 155.578C404.899 155.899 405.298 156.323 405.575 156.852C405.861 157.381 406.004 157.948 406.004 158.555C406.004 158.772 405.991 158.945 405.965 159.075H400.518C400.544 159.474 400.652 159.825 400.843 160.128C401.042 160.423 401.289 160.657 401.584 160.83C401.887 160.995 402.217 161.077 402.572 161.077C402.953 161.077 403.313 160.982 403.651 160.791C403.989 160.6 404.223 160.349 404.353 160.037L405.575 160.388C405.341 160.899 404.951 161.32 404.405 161.649C403.868 161.97 403.239 162.13 402.52 162.13ZM400.479 158.126H404.587C404.552 157.736 404.44 157.394 404.249 157.099C404.058 156.796 403.811 156.562 403.508 156.397C403.213 156.224 402.884 156.137 402.52 156.137C402.165 156.137 401.835 156.224 401.532 156.397C401.237 156.562 400.995 156.796 400.804 157.099C400.613 157.394 400.505 157.736 400.479 158.126ZM406.677 160.011C406.677 159.578 406.798 159.201 407.041 158.88C407.283 158.551 407.621 158.299 408.055 158.126C408.497 157.944 409.004 157.853 409.576 157.853C409.879 157.853 410.187 157.879 410.499 157.931C410.819 157.974 411.101 158.039 411.344 158.126V157.697C411.344 157.22 411.201 156.848 410.915 156.579C410.629 156.31 410.217 156.176 409.68 156.176C409.307 156.176 408.947 156.241 408.601 156.371C408.254 156.501 407.894 156.692 407.522 156.943L407.041 155.981C407.491 155.686 407.942 155.465 408.393 155.318C408.852 155.162 409.333 155.084 409.836 155.084C410.746 155.084 411.461 155.327 411.981 155.812C412.509 156.289 412.774 156.969 412.774 157.853V160.388C412.774 160.553 412.8 160.67 412.852 160.739C412.912 160.808 413.012 160.847 413.151 160.856V162C413.021 162.026 412.904 162.043 412.8 162.052C412.696 162.061 412.609 162.065 412.54 162.065C412.228 162.065 411.994 161.991 411.838 161.844C411.69 161.688 411.604 161.515 411.578 161.324L411.539 160.934C411.244 161.315 410.867 161.61 410.408 161.818C409.948 162.026 409.485 162.13 409.017 162.13C408.566 162.13 408.163 162.039 407.808 161.857C407.452 161.666 407.175 161.411 406.976 161.09C406.776 160.769 406.677 160.41 406.677 160.011ZM411.006 160.427C411.231 160.202 411.344 159.989 411.344 159.79V159.01C410.832 158.819 410.312 158.724 409.784 158.724C409.264 158.724 408.839 158.832 408.51 159.049C408.189 159.257 408.028 159.539 408.028 159.894C408.028 160.189 408.146 160.462 408.38 160.713C408.622 160.956 408.969 161.077 409.42 161.077C409.723 161.077 410.018 161.016 410.304 160.895C410.59 160.774 410.824 160.618 411.006 160.427ZM417.589 162.13C416.887 162.13 416.272 161.97 415.743 161.649C415.215 161.32 414.803 160.886 414.508 160.349C414.214 159.812 414.066 159.227 414.066 158.594C414.066 157.961 414.209 157.381 414.495 156.852C414.79 156.315 415.197 155.886 415.717 155.565C416.246 155.244 416.87 155.084 417.589 155.084C418.291 155.084 418.894 155.24 419.396 155.552C419.908 155.855 420.289 156.263 420.54 156.774L419.149 157.216C418.993 156.93 418.772 156.709 418.486 156.553C418.209 156.388 417.901 156.306 417.563 156.306C417.182 156.306 416.835 156.406 416.523 156.605C416.22 156.796 415.977 157.064 415.795 157.411C415.622 157.758 415.535 158.152 415.535 158.594C415.535 159.036 415.626 159.43 415.808 159.777C415.999 160.124 416.246 160.401 416.549 160.609C416.861 160.808 417.204 160.908 417.576 160.908C417.923 160.908 418.252 160.817 418.564 160.635C418.876 160.453 419.084 160.232 419.188 159.972L420.592 160.388C420.367 160.899 419.99 161.32 419.461 161.649C418.933 161.97 418.309 162.13 417.589 162.13ZM427.867 162H426.437V158.191C426.437 157.576 426.324 157.116 426.099 156.813C425.874 156.51 425.557 156.358 425.15 156.358C424.89 156.358 424.626 156.427 424.357 156.566C424.097 156.705 423.863 156.895 423.655 157.138C423.447 157.372 423.295 157.645 423.2 157.957V162H421.77V152.51H423.2V156.566C423.46 156.098 423.815 155.734 424.266 155.474C424.717 155.214 425.202 155.084 425.722 155.084C426.285 155.084 426.723 155.214 427.035 155.474C427.347 155.725 427.564 156.063 427.685 156.488C427.806 156.904 427.867 157.359 427.867 157.853V162ZM429.618 163.261L429.93 161.922H429.462V160.336H430.749V161.922L430.294 163.261H429.618ZM443.044 159.621C443.044 160.115 442.914 160.54 442.654 160.895C442.394 161.25 442.047 161.523 441.614 161.714C441.189 161.905 440.717 162 440.197 162H435.79V152.77H440.548C440.981 152.77 441.354 152.887 441.666 153.121C441.978 153.346 442.221 153.641 442.394 154.005C442.567 154.369 442.654 154.742 442.654 155.123C442.654 155.574 442.537 155.998 442.303 156.397C442.078 156.787 441.753 157.077 441.328 157.268C441.848 157.424 442.264 157.71 442.576 158.126C442.888 158.533 443.044 159.032 443.044 159.621ZM437.246 154.031V156.748H439.924C440.288 156.748 440.591 156.622 440.834 156.371C441.077 156.111 441.198 155.786 441.198 155.396C441.198 154.997 441.085 154.672 440.86 154.421C440.635 154.161 440.349 154.031 440.002 154.031H437.246ZM441.549 159.348C441.549 158.967 441.428 158.633 441.185 158.347C440.951 158.061 440.652 157.918 440.288 157.918H437.246V160.739H440.197C440.578 160.739 440.899 160.605 441.159 160.336C441.419 160.059 441.549 159.729 441.549 159.348ZM447.435 162.13C446.725 162.13 446.105 161.97 445.576 161.649C445.056 161.32 444.653 160.891 444.367 160.362C444.081 159.825 443.938 159.24 443.938 158.607C443.938 157.974 444.081 157.394 444.367 156.865C444.662 156.328 445.069 155.899 445.589 155.578C446.118 155.249 446.733 155.084 447.435 155.084C448.137 155.084 448.748 155.249 449.268 155.578C449.797 155.899 450.204 156.328 450.49 156.865C450.785 157.394 450.932 157.974 450.932 158.607C450.932 159.24 450.789 159.825 450.503 160.362C450.217 160.891 449.81 161.32 449.281 161.649C448.761 161.97 448.146 162.13 447.435 162.13ZM445.407 158.62C445.407 159.053 445.498 159.443 445.68 159.79C445.862 160.137 446.105 160.41 446.408 160.609C446.712 160.808 447.054 160.908 447.435 160.908C447.808 160.908 448.146 160.808 448.449 160.609C448.761 160.401 449.008 160.124 449.19 159.777C449.372 159.43 449.463 159.04 449.463 158.607C449.463 158.174 449.372 157.784 449.19 157.437C449.008 157.09 448.761 156.817 448.449 156.618C448.146 156.41 447.808 156.306 447.435 156.306C447.063 156.306 446.72 156.41 446.408 156.618C446.105 156.817 445.862 157.095 445.68 157.45C445.498 157.797 445.407 158.187 445.407 158.62ZM456.023 156.436C455.468 156.453 454.974 156.583 454.541 156.826C454.116 157.06 453.813 157.398 453.631 157.84V162H452.201V155.201H453.527V156.722C453.761 156.254 454.068 155.881 454.45 155.604C454.831 155.318 455.234 155.162 455.659 155.136C455.737 155.136 455.806 155.136 455.867 155.136C455.927 155.136 455.979 155.14 456.023 155.149V156.436ZM460.004 162.13C459.293 162.13 458.673 161.97 458.145 161.649C457.625 161.32 457.222 160.891 456.936 160.362C456.65 159.825 456.507 159.24 456.507 158.607C456.507 157.974 456.65 157.394 456.936 156.865C457.23 156.328 457.638 155.899 458.158 155.578C458.686 155.249 459.302 155.084 460.004 155.084C460.706 155.084 461.317 155.249 461.837 155.578C462.365 155.899 462.773 156.328 463.059 156.865C463.353 157.394 463.501 157.974 463.501 158.607C463.501 159.24 463.358 159.825 463.072 160.362C462.786 160.891 462.378 161.32 461.85 161.649C461.33 161.97 460.714 162.13 460.004 162.13ZM457.976 158.62C457.976 159.053 458.067 159.443 458.249 159.79C458.431 160.137 458.673 160.41 458.977 160.609C459.28 160.808 459.622 160.908 460.004 160.908C460.376 160.908 460.714 160.808 461.018 160.609C461.33 160.401 461.577 160.124 461.759 159.777C461.941 159.43 462.032 159.04 462.032 158.607C462.032 158.174 461.941 157.784 461.759 157.437C461.577 157.09 461.33 156.817 461.018 156.618C460.714 156.41 460.376 156.306 460.004 156.306C459.631 156.306 459.289 156.41 458.977 156.618C458.673 156.817 458.431 157.095 458.249 157.45C458.067 157.797 457.976 158.187 457.976 158.62ZM468.435 162.13C467.915 162.13 467.443 162.009 467.018 161.766C466.593 161.515 466.264 161.181 466.03 160.765V162H464.769V152.51H466.199V156.488C466.468 156.055 466.801 155.712 467.2 155.461C467.607 155.21 468.084 155.084 468.63 155.084C469.237 155.084 469.765 155.249 470.216 155.578C470.667 155.907 471.018 156.345 471.269 156.891C471.52 157.428 471.646 158.009 471.646 158.633C471.646 159.274 471.503 159.859 471.217 160.388C470.94 160.917 470.558 161.341 470.073 161.662C469.588 161.974 469.042 162.13 468.435 162.13ZM468.058 160.908C468.474 160.908 468.842 160.804 469.163 160.596C469.484 160.379 469.731 160.098 469.904 159.751C470.086 159.404 470.177 159.032 470.177 158.633C470.177 158.226 470.09 157.844 469.917 157.489C469.752 157.134 469.518 156.848 469.215 156.631C468.912 156.414 468.561 156.306 468.162 156.306C467.729 156.306 467.339 156.449 466.992 156.735C466.645 157.021 466.381 157.368 466.199 157.775V159.569C466.268 159.829 466.403 160.059 466.602 160.258C466.801 160.457 467.031 160.618 467.291 160.739C467.56 160.852 467.815 160.908 468.058 160.908ZM472.867 159.361V155.201H474.297V159.075C474.297 160.297 474.731 160.908 475.597 160.908C476.005 160.908 476.39 160.782 476.754 160.531C477.118 160.271 477.4 159.907 477.599 159.439V155.201H479.029V160.388C479.029 160.553 479.06 160.67 479.12 160.739C479.181 160.808 479.281 160.847 479.419 160.856V162C479.272 162.026 479.151 162.043 479.055 162.052C478.96 162.061 478.869 162.065 478.782 162.065C478.522 162.065 478.306 161.996 478.132 161.857C477.959 161.718 477.859 161.532 477.833 161.298L477.807 160.622C477.504 161.116 477.11 161.493 476.624 161.753C476.139 162.004 475.606 162.13 475.025 162.13C474.315 162.13 473.777 161.896 473.413 161.428C473.049 160.96 472.867 160.271 472.867 159.361ZM480.425 158.607C480.425 157.957 480.555 157.368 480.815 156.839C481.084 156.302 481.448 155.877 481.907 155.565C482.366 155.244 482.895 155.084 483.493 155.084C484.013 155.084 484.481 155.218 484.897 155.487C485.322 155.756 485.651 156.089 485.885 156.488V152.51H487.315V160.388C487.315 160.553 487.345 160.67 487.406 160.739C487.467 160.808 487.566 160.847 487.705 160.856V162C487.436 162.043 487.228 162.065 487.081 162.065C486.812 162.065 486.583 161.991 486.392 161.844C486.21 161.688 486.115 161.497 486.106 161.272L486.093 160.765C485.833 161.198 485.482 161.536 485.04 161.779C484.598 162.013 484.139 162.13 483.662 162.13C483.038 162.13 482.479 161.97 481.985 161.649C481.5 161.328 481.118 160.904 480.841 160.375C480.564 159.838 480.425 159.248 480.425 158.607ZM485.885 159.556V157.775C485.781 157.498 485.625 157.251 485.417 157.034C485.209 156.809 484.971 156.631 484.702 156.501C484.442 156.371 484.182 156.306 483.922 156.306C483.515 156.306 483.159 156.419 482.856 156.644C482.561 156.861 482.327 157.147 482.154 157.502C481.989 157.857 481.907 158.234 481.907 158.633C481.907 159.049 481.998 159.43 482.18 159.777C482.371 160.124 482.626 160.401 482.947 160.609C483.268 160.808 483.627 160.908 484.026 160.908C484.269 160.908 484.52 160.852 484.78 160.739C485.049 160.618 485.283 160.457 485.482 160.258C485.681 160.05 485.816 159.816 485.885 159.556ZM489.066 159.361V155.201H490.496V159.075C490.496 160.297 490.93 160.908 491.796 160.908C492.204 160.908 492.589 160.782 492.953 160.531C493.317 160.271 493.599 159.907 493.798 159.439V155.201H495.228V160.388C495.228 160.553 495.259 160.67 495.319 160.739C495.38 160.808 495.48 160.847 495.618 160.856V162C495.471 162.026 495.35 162.043 495.254 162.052C495.159 162.061 495.068 162.065 494.981 162.065C494.721 162.065 494.505 161.996 494.331 161.857C494.158 161.718 494.058 161.532 494.032 161.298L494.006 160.622C493.703 161.116 493.309 161.493 492.823 161.753C492.338 162.004 491.805 162.13 491.224 162.13C490.514 162.13 489.976 161.896 489.612 161.428C489.248 160.96 489.066 160.271 489.066 159.361ZM500.875 156.436C500.321 156.453 499.827 156.583 499.393 156.826C498.969 157.06 498.665 157.398 498.483 157.84V162H497.053V155.201H498.379V156.722C498.613 156.254 498.921 155.881 499.302 155.604C499.684 155.318 500.087 155.162 500.511 155.136C500.589 155.136 500.659 155.136 500.719 155.136C500.78 155.136 500.832 155.14 500.875 155.149V156.436ZM508.619 161.649C508.437 161.736 508.185 161.835 507.865 161.948C507.544 162.052 507.202 162.104 506.838 162.104C506.387 162.104 505.997 161.983 505.668 161.74C505.347 161.497 505.187 161.103 505.187 160.557V156.306H504.29V155.201H505.187V152.965H506.617V155.201H508.099V156.306H506.617V160.102C506.634 160.345 506.708 160.522 506.838 160.635C506.976 160.739 507.145 160.791 507.345 160.791C507.544 160.791 507.735 160.756 507.917 160.687C508.099 160.618 508.233 160.561 508.32 160.518L508.619 161.649ZM512.601 162.13C511.899 162.13 511.284 161.97 510.755 161.649C510.226 161.328 509.815 160.904 509.52 160.375C509.225 159.838 509.078 159.253 509.078 158.62C509.078 157.979 509.225 157.389 509.52 156.852C509.815 156.315 510.226 155.886 510.755 155.565C511.284 155.244 511.903 155.084 512.614 155.084C513.325 155.084 513.94 155.249 514.46 155.578C514.98 155.899 515.379 156.323 515.656 156.852C515.942 157.381 516.085 157.948 516.085 158.555C516.085 158.772 516.072 158.945 516.046 159.075H510.599C510.625 159.474 510.733 159.825 510.924 160.128C511.123 160.423 511.37 160.657 511.665 160.83C511.968 160.995 512.298 161.077 512.653 161.077C513.034 161.077 513.394 160.982 513.732 160.791C514.07 160.6 514.304 160.349 514.434 160.037L515.656 160.388C515.422 160.899 515.032 161.32 514.486 161.649C513.949 161.97 513.32 162.13 512.601 162.13ZM510.56 158.126H514.668C514.633 157.736 514.521 157.394 514.33 157.099C514.139 156.796 513.892 156.562 513.589 156.397C513.294 156.224 512.965 156.137 512.601 156.137C512.246 156.137 511.916 156.224 511.613 156.397C511.318 156.562 511.076 156.796 510.885 157.099C510.694 157.394 510.586 157.736 510.56 158.126ZM527.652 162H526.222V158.191C526.222 157.567 526.118 157.108 525.91 156.813C525.702 156.51 525.398 156.358 525 156.358C524.601 156.358 524.228 156.51 523.882 156.813C523.544 157.108 523.305 157.493 523.167 157.97V162H521.737V158.191C521.737 157.55 521.633 157.086 521.425 156.8C521.217 156.505 520.918 156.358 520.528 156.358C520.129 156.358 519.756 156.505 519.41 156.8C519.072 157.095 518.829 157.48 518.682 157.957V162H517.252V155.201H518.552V156.566C518.812 156.089 519.163 155.725 519.605 155.474C520.047 155.214 520.549 155.084 521.113 155.084C521.676 155.084 522.118 155.231 522.439 155.526C522.768 155.821 522.972 156.189 523.05 156.631C523.639 155.6 524.493 155.084 525.611 155.084C526.148 155.084 526.564 155.214 526.859 155.474C527.153 155.725 527.357 156.063 527.47 156.488C527.591 156.904 527.652 157.359 527.652 157.853V162ZM533.16 162.13C532.614 162.13 532.133 162 531.717 161.74C531.301 161.48 530.972 161.142 530.729 160.726V164.769H529.299V155.201H530.56V156.423C530.82 156.016 531.158 155.691 531.574 155.448C531.99 155.205 532.454 155.084 532.965 155.084C533.589 155.084 534.14 155.249 534.616 155.578C535.102 155.899 535.483 156.328 535.76 156.865C536.038 157.394 536.176 157.97 536.176 158.594C536.176 159.253 536.046 159.851 535.786 160.388C535.526 160.917 535.171 161.341 534.72 161.662C534.27 161.974 533.75 162.13 533.16 162.13ZM532.692 160.908C533.1 160.908 533.451 160.8 533.745 160.583C534.049 160.358 534.283 160.072 534.447 159.725C534.621 159.37 534.707 158.993 534.707 158.594C534.707 158.178 534.612 157.797 534.421 157.45C534.239 157.103 533.988 156.826 533.667 156.618C533.355 156.41 532.996 156.306 532.588 156.306C532.346 156.306 532.09 156.367 531.821 156.488C531.561 156.609 531.332 156.77 531.132 156.969C530.933 157.168 530.799 157.394 530.729 157.645V159.426C530.903 159.842 531.167 160.193 531.522 160.479C531.886 160.765 532.276 160.908 532.692 160.908ZM537.475 152.51H538.905V160.037C538.905 160.384 538.957 160.605 539.061 160.7C539.165 160.795 539.295 160.843 539.451 160.843C539.625 160.843 539.789 160.826 539.945 160.791C540.101 160.756 540.231 160.713 540.335 160.661L540.543 161.792C540.335 161.879 540.088 161.952 539.802 162.013C539.516 162.074 539.261 162.104 539.035 162.104C538.55 162.104 538.169 161.97 537.891 161.701C537.614 161.424 537.475 161.042 537.475 160.557V152.51ZM544.454 162.13C543.752 162.13 543.136 161.97 542.608 161.649C542.079 161.328 541.667 160.904 541.373 160.375C541.078 159.838 540.931 159.253 540.931 158.62C540.931 157.979 541.078 157.389 541.373 156.852C541.667 156.315 542.079 155.886 542.608 155.565C543.136 155.244 543.756 155.084 544.467 155.084C545.177 155.084 545.793 155.249 546.313 155.578C546.833 155.899 547.231 156.323 547.509 156.852C547.795 157.381 547.938 157.948 547.938 158.555C547.938 158.772 547.925 158.945 547.899 159.075H542.452C542.478 159.474 542.586 159.825 542.777 160.128C542.976 160.423 543.223 160.657 543.518 160.83C543.821 160.995 544.15 161.077 544.506 161.077C544.887 161.077 545.247 160.982 545.585 160.791C545.923 160.6 546.157 160.349 546.287 160.037L547.509 160.388C547.275 160.899 546.885 161.32 546.339 161.649C545.801 161.97 545.173 162.13 544.454 162.13ZM542.413 158.126H546.521C546.486 157.736 546.373 157.394 546.183 157.099C545.992 156.796 545.745 156.562 545.442 156.397C545.147 156.224 544.818 156.137 544.454 156.137C544.098 156.137 543.769 156.224 543.466 156.397C543.171 156.562 542.928 156.796 542.738 157.099C542.547 157.394 542.439 157.736 542.413 158.126Z" fill="#ABABAB"/>
</g>
<defs>
<filter id="filter0_d_0_1" x="11" y="10" width="675" height="140" filterUnits="userSpaceOnUse" color-interpolation-filters="sRGB">
<feFlood flood-opacity="0" result="BackgroundImageFix"/>
<feColorMatrix in="SourceAlpha" type="matrix" values="0 0 0 0 0 0 0 0 0 0 0 0 0 0 0 0 0 0 127 0" result="hardAlpha"/>
<feOffset dy="3"/>
<feGaussianBlur stdDeviation="5"/>
<feComposite in2="hardAlpha" operator="out"/>
<feColorMatrix type="matrix" values="0 0 0 0 0 0 0 0 0 0 0 0 0 0 0 0 0 0 0.1 0"/>
<feBlend mode="normal" in2="BackgroundImageFix" result="effect1_dropShadow_0_1"/>
<feBlend mode="normal" in="SourceGraphic" in2="effect1_dropShadow_0_1" result="shape"/>
</filter>
<filter id="filter1_f_0_1" x="-41" y="-141" width="336" height="336" filterUnits="userSpaceOnUse" color-interpolation-filters="sRGB">
<feFlood flood-opacity="0" result="BackgroundImageFix"/>
<feBlend mode="normal" in="SourceGraphic" in2="BackgroundImageFix" result="shape"/>
<feGaussianBlur stdDeviation="62" result="effect1_foregroundBlur_0_1"/>
</filter>
<filter id="filter2_f_0_1" x="-99" y="-55" width="336" height="336" filterUnits="userSpaceOnUse" color-interpolation-filters="sRGB">
<feFlood flood-opacity="0" result="BackgroundImageFix"/>
<feBlend mode="normal" in="SourceGraphic" in2="BackgroundImageFix" result="shape"/>
<feGaussianBlur stdDeviation="62" result="effect1_foregroundBlur_0_1"/>
</filter>
<filter id="filter3_f_0_1" x="69" y="-72" width="362" height="362" filterUnits="userSpaceOnUse" color-interpolation-filters="sRGB">
<feFlood flood-opacity="0" result="BackgroundImageFix"/>
<feBlend mode="normal" in="SourceGraphic" in2="BackgroundImageFix" result="shape"/>
<feGaussianBlur stdDeviation="62" result="effect1_foregroundBlur_0_1"/>
</filter>
<filter id="filter4_f_0_1" x="188" y="-147" width="349" height="349" filterUnits="userSpaceOnUse" color-interpolation-filters="sRGB">
<feFlood flood-opacity="0" result="BackgroundImageFix"/>
<feBlend mode="normal" in="SourceGraphic" in2="BackgroundImageFix" result="shape"/>
<feGaussianBlur stdDeviation="62" result="effect1_foregroundBlur_0_1"/>
</filter>
<filter id="filter5_f_0_1" x="303" y="-64" width="344" height="344" filterUnits="userSpaceOnUse" color-interpolation-filters="sRGB">
<feFlood flood-opacity="0" result="BackgroundImageFix"/>
<feBlend mode="normal" in="SourceGraphic" in2="BackgroundImageFix" result="shape"/>
<feGaussianBlur stdDeviation="62" result="effect1_foregroundBlur_0_1"/>
</filter>
<filter id="filter6_f_0_1" x="459" y="-114" width="336" height="336" filterUnits="userSpaceOnUse" color-interpolation-filters="sRGB">
<feFlood flood-opacity="0" result="BackgroundImageFix"/>
<feBlend mode="normal" in="SourceGraphic" in2="BackgroundImageFix" result="shape"/>
<feGaussianBlur stdDeviation="62" result="effect1_foregroundBlur_0_1"/>
</filter>
<filter id="filter7_b_0_1" x="231" y="-24" width="225" height="65" filterUnits="userSpaceOnUse" color-interpolation-filters="sRGB">
<feFlood flood-opacity="0" result="BackgroundImageFix"/>
<feGaussianBlur in="BackgroundImageFix" stdDeviation="5"/>
<feComposite in2="SourceAlpha" operator="in" result="effect1_backgroundBlur_0_1"/>
<feBlend mode="normal" in="SourceGraphic" in2="effect1_backgroundBlur_0_1" result="shape"/>
</filter>
<clipPath id="clip0_0_1">
<rect width="1920" height="6313" fill="white" transform="translate(-147 -646)"/>
</clipPath>
<clipPath id="clip1_0_1">
<rect width="27" height="27" fill="white" transform="translate(578 63)"/>
</clipPath>
</defs>
</svg>
